<svg width="366" height="132" viewBox="0 0 366 132" fill="none" xmlns="http://www.w3.org/2000/svg">
<circle cx="66" cy="66" r="42.5" stroke="#093C85" stroke-width="15"/>
<circle cx="66" cy="66" r="10" stroke="#093C85" stroke-width="10"/>
<rect x="132" y="60" width="12" height="45" rx="5" transform="rotate(90 132 60)" fill="#E87C35"/>
<rect x="72" y="132" width="12" height="45" rx="5" transform="rotate(-180 72 132)" fill="#E87C35"/>
<rect x="72" y="45" width="12" height="45" rx="5" transform="rotate(-180 72 45)" fill="#E87C35"/>
<rect x="45" y="60" width="12" height="45" rx="5" transform="rotate(90 45 60)" fill="#E87C35"/>
<circle cx="66" cy="66" r="6" fill="#E87C35"/>
<path d="M153.024 84.56C150.149 84.56 147.629 83.944 145.464 82.712C143.299 81.4427 141.619 79.7067 140.424 77.504C139.267 75.264 138.688 72.6693 138.688 69.72C138.688 66.7707 139.267 64.1947 140.424 61.992C141.619 59.752 143.299 58.016 145.464 56.784C147.629 55.5147 150.149 54.88 153.024 54.88C155.899 54.88 158.4 55.5147 160.528 56.784C162.693 58.016 164.373 59.752 165.568 61.992C166.763 64.1947 167.36 66.7707 167.36 69.72C167.36 72.6693 166.763 75.264 165.568 77.504C164.373 79.7067 162.693 81.4427 160.528 82.712C158.4 83.944 155.899 84.56 153.024 84.56ZM153.024 79.912C154.443 79.912 155.861 79.576 157.28 78.904C158.699 78.232 159.875 77.1493 160.808 75.656C161.779 74.1253 162.264 72.128 162.264 69.664C162.264 67.2 161.779 65.2213 160.808 63.728C159.875 62.2347 158.699 61.1707 157.28 60.536C155.861 59.864 154.443 59.528 153.024 59.528C151.605 59.528 150.168 59.864 148.712 60.536C147.293 61.1707 146.117 62.2347 145.184 63.728C144.251 65.2213 143.784 67.2 143.784 69.664C143.784 72.128 144.251 74.1253 145.184 75.656C146.117 77.1493 147.293 78.232 148.712 78.904C150.168 79.576 151.605 79.912 153.024 79.912ZM186.248 84.28C185.538 84.28 184.904 84.0747 184.344 83.664C183.821 83.2533 183.429 82.768 183.168 82.208L173.424 58.912C173.237 58.464 173.144 58.072 173.144 57.736C173.144 57.0267 173.386 56.4293 173.872 55.944C174.357 55.4213 174.954 55.16 175.664 55.16C176.186 55.16 176.653 55.3093 177.064 55.608C177.512 55.8693 177.81 56.2053 177.96 56.616L186.528 78.344L195.096 56.616C195.282 56.2053 195.581 55.8693 195.992 55.608C196.44 55.3093 196.906 55.16 197.392 55.16C198.101 55.16 198.698 55.4213 199.184 55.944C199.669 56.4293 199.912 57.0267 199.912 57.736C199.912 58.072 199.818 58.464 199.632 58.912L189.888 82.208C189.626 82.768 189.216 83.2533 188.656 83.664C188.133 84.0747 187.517 84.28 186.808 84.28H186.248ZM220.192 84.56C215.637 84.56 212.072 83.272 209.496 80.696C206.957 78.0827 205.688 74.424 205.688 69.72C205.688 67.1813 206.155 64.792 207.088 62.552C208.021 60.2747 209.477 58.4267 211.456 57.008C213.435 55.5893 215.973 54.88 219.072 54.88C221.947 54.88 224.373 55.552 226.352 56.896C228.331 58.2027 229.824 59.92 230.832 62.048C231.877 64.176 232.4 66.4907 232.4 68.992C232.4 69.7013 232.157 70.2987 231.672 70.784C231.224 71.2693 230.608 71.512 229.824 71.512H210.84C211.139 74.0133 212.091 76.0293 213.696 77.56C215.301 79.0533 217.616 79.8 220.64 79.8C222.32 79.8 223.739 79.6507 224.896 79.352C226.053 79.016 227.155 78.5867 228.2 78.064C228.499 77.9147 228.835 77.84 229.208 77.84C229.805 77.84 230.328 78.0453 230.776 78.456C231.224 78.8667 231.448 79.3893 231.448 80.024C231.448 80.472 231.299 80.8827 231 81.256C230.739 81.592 230.403 81.872 229.992 82.096C228.76 82.8053 227.416 83.4027 225.96 83.888C224.541 84.336 222.619 84.56 220.192 84.56ZM210.84 67.368H227.36C227.248 65.4267 226.744 63.8587 225.848 62.664C224.989 61.4693 223.944 60.592 222.712 60.032C221.48 59.472 220.267 59.192 219.072 59.192C217.877 59.192 216.664 59.472 215.432 60.032C214.2 60.592 213.155 61.4693 212.296 62.664C211.437 63.8587 210.952 65.4267 210.84 67.368ZM243.663 84.28C242.953 84.28 242.356 84.0373 241.871 83.552C241.385 83.0667 241.143 82.4693 241.143 81.76V57.736C241.143 57.0267 241.385 56.4293 241.871 55.944C242.356 55.4213 242.953 55.16 243.663 55.16C244.372 55.16 244.969 55.4213 245.455 55.944C245.977 56.4293 246.239 57.0267 246.239 57.736V60.144C247.247 58.8 248.479 57.5867 249.935 56.504C251.391 55.4213 253.089 54.88 255.031 54.88H255.311C256.02 54.88 256.599 55.1227 257.047 55.608C257.532 56.0933 257.775 56.6907 257.775 57.4C257.775 58.1093 257.532 58.688 257.047 59.136C256.561 59.584 255.945 59.808 255.199 59.808H254.919C253.089 59.808 251.428 60.2747 249.935 61.208C248.441 62.104 247.209 63.28 246.239 64.736V81.76C246.239 82.4693 245.977 83.0667 245.455 83.552C244.969 84.0373 244.372 84.28 243.663 84.28ZM273.82 84.56C271.767 84.56 269.9 84.336 268.22 83.888C266.578 83.44 265.047 82.824 263.628 82.04C262.994 81.592 262.676 80.976 262.676 80.192C262.676 79.632 262.882 79.128 263.292 78.68C263.703 78.1947 264.226 77.952 264.86 77.952C265.196 77.952 265.532 78.0267 265.868 78.176C266.876 78.624 267.978 79.016 269.172 79.352C270.404 79.688 271.842 79.856 273.484 79.856C275.65 79.856 277.218 79.52 278.188 78.848C279.196 78.1387 279.7 77.1493 279.7 75.88C279.7 75.0587 279.29 74.424 278.468 73.976C277.684 73.528 276.639 73.1547 275.332 72.856C274.063 72.52 272.719 72.184 271.3 71.848C269.882 71.4747 268.519 70.9893 267.212 70.392C265.943 69.7573 264.898 68.9173 264.076 67.872C263.292 66.7893 262.9 65.408 262.9 63.728C262.9 61.1893 263.815 59.08 265.644 57.4C267.474 55.72 270.199 54.88 273.82 54.88C275.351 54.88 276.788 55.0107 278.132 55.272C279.514 55.5333 280.783 55.8693 281.94 56.28C282.463 56.4293 282.855 56.728 283.116 57.176C283.415 57.5867 283.564 57.9973 283.564 58.408C283.564 59.0053 283.34 59.528 282.892 59.976C282.482 60.424 281.959 60.648 281.324 60.648C281.175 60.648 281.044 60.648 280.932 60.648C280.82 60.6107 280.708 60.5733 280.596 60.536C279.7 60.2373 278.711 59.9947 277.628 59.808C276.583 59.6213 275.444 59.528 274.212 59.528C272.159 59.528 270.572 59.9013 269.452 60.648C268.332 61.3947 267.772 62.328 267.772 63.448C267.772 64.4187 268.164 65.1653 268.948 65.688C269.77 66.2107 270.815 66.64 272.084 66.976C273.391 67.2747 274.754 67.592 276.172 67.928C277.628 68.264 278.991 68.7493 280.26 69.384C281.567 69.9813 282.612 70.8213 283.396 71.904C284.218 72.9867 284.628 74.4427 284.628 76.272C284.628 78.5493 283.714 80.5093 281.884 82.152C280.092 83.7573 277.404 84.56 273.82 84.56ZM306.255 84.56C301.7 84.56 298.135 83.272 295.559 80.696C293.02 78.0827 291.751 74.424 291.751 69.72C291.751 67.1813 292.217 64.792 293.151 62.552C294.084 60.2747 295.54 58.4267 297.519 57.008C299.497 55.5893 302.036 54.88 305.135 54.88C308.009 54.88 310.436 55.552 312.415 56.896C314.393 58.2027 315.887 59.92 316.895 62.048C317.94 64.176 318.463 66.4907 318.463 68.992C318.463 69.7013 318.22 70.2987 317.735 70.784C317.287 71.2693 316.671 71.512 315.887 71.512H296.903C297.201 74.0133 298.153 76.0293 299.759 77.56C301.364 79.0533 303.679 79.8 306.703 79.8C308.383 79.8 309.801 79.6507 310.959 79.352C312.116 79.016 313.217 78.5867 314.263 78.064C314.561 77.9147 314.897 77.84 315.271 77.84C315.868 77.84 316.391 78.0453 316.839 78.456C317.287 78.8667 317.511 79.3893 317.511 80.024C317.511 80.472 317.361 80.8827 317.062 81.256C316.801 81.592 316.465 81.872 316.055 82.096C314.823 82.8053 313.479 83.4027 312.023 83.888C310.604 84.336 308.681 84.56 306.255 84.56ZM296.903 67.368H313.423C313.311 65.4267 312.807 63.8587 311.911 62.664C311.052 61.4693 310.007 60.592 308.775 60.032C307.543 59.472 306.329 59.192 305.135 59.192C303.94 59.192 302.727 59.472 301.495 60.032C300.263 60.592 299.217 61.4693 298.359 62.664C297.5 63.8587 297.015 65.4267 296.903 67.368ZM339.973 84.56C335.419 84.56 331.853 83.272 329.277 80.696C326.739 78.0827 325.469 74.424 325.469 69.72C325.469 67.1813 325.936 64.792 326.869 62.552C327.803 60.2747 329.259 58.4267 331.237 57.008C333.216 55.5893 335.755 54.88 338.853 54.88C341.728 54.88 344.155 55.552 346.133 56.896C348.112 58.2027 349.605 59.92 350.613 62.048C351.659 64.176 352.181 66.4907 352.181 68.992C352.181 69.7013 351.939 70.2987 351.453 70.784C351.005 71.2693 350.389 71.512 349.605 71.512H330.621C330.92 74.0133 331.872 76.0293 333.477 77.56C335.083 79.0533 337.397 79.8 340.421 79.8C342.101 79.8 343.52 79.6507 344.677 79.352C345.835 79.016 346.936 78.5867 347.981 78.064C348.28 77.9147 348.616 77.84 348.989 77.84C349.587 77.84 350.109 78.0453 350.557 78.456C351.005 78.8667 351.229 79.3893 351.229 80.024C351.229 80.472 351.08 80.8827 350.781 81.256C350.52 81.592 350.184 81.872 349.773 82.096C348.541 82.8053 347.197 83.4027 345.741 83.888C344.323 84.336 342.4 84.56 339.973 84.56ZM330.621 67.368H347.141C347.029 65.4267 346.525 63.8587 345.629 62.664C344.771 61.4693 343.725 60.592 342.493 60.032C341.261 59.472 340.048 59.192 338.853 59.192C337.659 59.192 336.445 59.472 335.213 60.032C333.981 60.592 332.936 61.4693 332.077 62.664C331.219 63.8587 330.733 65.4267 330.621 67.368Z" fill="#093C85"/>
<path d="M145.464 82.712L144.705 84.006L144.714 84.011L144.722 84.0157L145.464 82.712ZM140.424 77.504L139.091 78.1925L139.098 78.2059L139.105 78.2191L140.424 77.504ZM140.424 61.992L139.1 61.2861L139.096 61.2943L140.424 61.992ZM145.464 56.784L146.206 58.0877L146.214 58.0829L146.223 58.078L145.464 56.784ZM160.528 56.784L159.76 58.0722L159.773 58.0801L159.786 58.0877L160.528 56.784ZM165.568 61.992L164.244 62.6979L164.249 62.7071L165.568 61.992ZM165.568 77.504L166.887 78.2192L166.892 78.2099L165.568 77.504ZM160.528 82.712L161.28 84.0102L161.287 84.006L160.528 82.712ZM157.28 78.904L157.922 80.2596L157.28 78.904ZM160.808 75.656L159.541 74.8527L159.536 74.861L160.808 75.656ZM160.808 63.728L159.536 64.523L159.543 64.5343L159.55 64.5455L160.808 63.728ZM157.28 60.536L156.638 61.8916L156.653 61.8986L156.667 61.9052L157.28 60.536ZM148.712 60.536L149.325 61.9052L149.333 61.9016L149.341 61.8979L148.712 60.536ZM145.184 63.728L143.912 62.933H143.912L145.184 63.728ZM145.184 75.656L143.903 76.4369L143.908 76.444L143.912 76.451L145.184 75.656ZM148.712 78.904L148.07 80.2596L148.077 80.2628L148.083 80.2659L148.712 78.904ZM153.024 84.56V83.06C150.369 83.06 148.112 82.493 146.206 81.4083L145.464 82.712L144.722 84.0157C147.146 85.395 149.93 86.06 153.024 86.06V84.56ZM145.464 82.712L146.223 81.418C144.293 80.2867 142.807 78.7507 141.743 76.7889L140.424 77.504L139.105 78.2191C140.431 80.6626 142.305 82.5986 144.705 84.006L145.464 82.712ZM140.424 77.504L141.757 76.8155C140.727 74.8217 140.188 72.4704 140.188 69.72H138.688H137.188C137.188 72.8682 137.807 75.7063 139.091 78.1925L140.424 77.504ZM138.688 69.72H140.188C140.188 66.9688 140.727 64.6406 141.752 62.6897L140.424 61.992L139.096 61.2943C137.807 63.7487 137.188 66.5725 137.188 69.72H138.688ZM140.424 61.992L141.748 62.6979C142.811 60.7031 144.292 59.1767 146.206 58.0877L145.464 56.784L144.722 55.4803C142.305 56.8553 140.426 58.8009 139.1 61.2861L140.424 61.992ZM145.464 56.784L146.223 58.078C148.126 56.9622 150.377 56.38 153.024 56.38V54.88V53.38C149.922 53.38 147.133 54.0671 144.705 55.49L145.464 56.784ZM153.024 54.88V56.38C155.672 56.38 157.899 56.9624 159.76 58.0722L160.528 56.784L161.296 55.4958C158.901 54.0669 156.125 53.38 153.024 53.38V54.88ZM160.528 56.784L159.786 58.0877C161.7 59.1767 163.181 60.7031 164.244 62.6979L165.568 61.992L166.892 61.2861C165.566 58.8009 163.687 56.8553 161.27 55.4803L160.528 56.784ZM165.568 61.992L164.249 62.7071C165.306 64.6544 165.86 66.9761 165.86 69.72H167.36H168.86C168.86 66.5652 168.22 63.735 166.887 61.2769L165.568 61.992ZM167.36 69.72H165.86C165.86 72.4631 165.306 74.8081 164.244 76.7981L165.568 77.504L166.892 78.2099C168.22 75.7199 168.86 72.8755 168.86 69.72H167.36ZM165.568 77.504L164.249 76.7889C163.185 78.7507 161.699 80.2867 159.769 81.418L160.528 82.712L161.287 84.006C163.687 82.5986 165.561 80.6626 166.887 78.2191L165.568 77.504ZM160.528 82.712L159.776 81.4139C157.913 82.4928 155.68 83.06 153.024 83.06V84.56V86.06C156.118 86.06 158.887 85.3952 161.28 84.0101L160.528 82.712ZM153.024 79.912V81.412C154.687 81.412 156.324 81.0165 157.922 80.2596L157.28 78.904L156.638 77.5484C155.398 78.1355 154.198 78.412 153.024 78.412V79.912ZM157.28 78.904L157.922 80.2596C159.631 79.4502 161.014 78.157 162.08 76.451L160.808 75.656L159.536 74.861C158.736 76.1416 157.767 77.0138 156.638 77.5484L157.28 78.904ZM160.808 75.656L162.075 76.4593C163.243 74.6166 163.764 72.3134 163.764 69.664H162.264H160.764C160.764 71.9426 160.314 73.6341 159.541 74.8527L160.808 75.656ZM162.264 69.664H163.764C163.764 67.0172 163.244 64.7238 162.066 62.9105L160.808 63.728L159.55 64.5455C160.313 65.7189 160.764 67.3828 160.764 69.664H162.264ZM160.808 63.728L162.08 62.933C161.01 61.2218 159.618 59.9388 157.893 59.1668L157.28 60.536L156.667 61.9052C157.779 62.4025 158.739 63.2476 159.536 64.523L160.808 63.728ZM157.28 60.536L157.922 59.1804C156.324 58.4235 154.687 58.028 153.024 58.028V59.528V61.028C154.198 61.028 155.398 61.3045 156.638 61.8916L157.28 60.536ZM153.024 59.528V58.028C151.362 58.028 149.711 58.423 148.083 59.1741L148.712 60.536L149.341 61.8979C150.625 61.305 151.849 61.028 153.024 61.028V59.528ZM148.712 60.536L148.099 59.1668C146.374 59.9388 144.982 61.2218 143.912 62.933L145.184 63.728L146.456 64.523C147.253 63.2476 148.213 62.4025 149.325 61.9052L148.712 60.536ZM145.184 63.728L143.912 62.933C142.781 64.7418 142.284 67.0263 142.284 69.664H143.784H145.284C145.284 67.3737 145.72 65.7008 146.456 64.523L145.184 63.728ZM143.784 69.664H142.284C142.284 72.3044 142.782 74.5987 143.903 76.4369L145.184 75.656L146.465 74.8751C145.719 73.6519 145.284 71.9516 145.284 69.664H143.784ZM145.184 75.656L143.912 76.451C144.978 78.157 146.361 79.4502 148.07 80.2596L148.712 78.904L149.354 77.5484C148.225 77.0138 147.256 76.1416 146.456 74.861L145.184 75.656ZM148.712 78.904L148.083 80.2659C149.711 81.017 151.362 81.412 153.024 81.412V79.912V78.412C151.849 78.412 150.625 78.135 149.341 77.5421L148.712 78.904ZM184.344 83.664L183.417 84.8435L183.436 84.8589L183.456 84.8736L184.344 83.664ZM183.167 82.208L181.784 82.7868L181.795 82.8148L181.808 82.8423L183.167 82.208ZM173.424 58.912L172.039 59.4889L172.04 59.4908L173.424 58.912ZM173.872 55.944L174.932 57.0047L174.952 56.985L174.971 56.9647L173.872 55.944ZM177.063 55.608L176.181 56.8211L176.242 56.8656L176.308 56.9037L177.063 55.608ZM177.959 56.616L176.55 57.1286L176.557 57.1475L176.564 57.1663L177.959 56.616ZM186.528 78.344L185.132 78.8943L186.528 82.433L187.923 78.8943L186.528 78.344ZM195.096 56.616L193.73 55.9953L193.714 56.0301L193.7 56.0657L195.096 56.616ZM195.992 55.608L196.797 56.8735L196.81 56.8649L196.824 56.8561L195.992 55.608ZM199.184 55.944L198.084 56.9647L198.103 56.985L198.123 57.0047L199.184 55.944ZM199.632 58.912L201.015 59.4908L201.016 59.4889L199.632 58.912ZM189.888 82.208L191.247 82.8423L191.26 82.8148L191.271 82.7868L189.888 82.208ZM188.655 83.664L187.768 82.4544L187.748 82.4691L187.729 82.4845L188.655 83.664ZM186.248 84.28V82.78C185.85 82.78 185.527 82.6721 185.231 82.4544L184.344 83.664L183.456 84.8736C184.28 85.4772 185.226 85.78 186.248 85.78V84.28ZM184.344 83.664L185.27 82.4845C184.918 82.2079 184.681 81.9047 184.527 81.5737L183.167 82.208L181.808 82.8423C182.176 83.6313 182.723 84.2988 183.417 84.8435L184.344 83.664ZM183.167 82.208L184.551 81.6292L174.807 58.3332L173.424 58.912L172.04 59.4908L181.784 82.7868L183.167 82.208ZM173.424 58.912L174.808 58.3351C174.667 57.9952 174.644 57.8066 174.644 57.736H173.144H171.644C171.644 58.3374 171.807 58.9328 172.039 59.4889L173.424 58.912ZM173.144 57.736H174.644C174.644 57.4096 174.738 57.1983 174.932 57.0047L173.872 55.944L172.811 54.8833C172.034 55.6603 171.644 56.6437 171.644 57.736H173.144ZM173.872 55.944L174.971 56.9647C175.174 56.7457 175.374 56.66 175.664 56.66V55.16V53.66C174.534 53.66 173.54 54.0969 172.772 54.9233L173.872 55.944ZM175.664 55.16V56.66C175.879 56.66 176.035 56.7147 176.181 56.8211L177.063 55.608L177.946 54.3949C177.271 53.904 176.493 53.66 175.664 53.66V55.16ZM177.063 55.608L176.308 56.9037C176.512 57.0229 176.542 57.1064 176.55 57.1286L177.959 56.616L179.369 56.1034C179.079 55.3042 178.511 54.7158 177.819 54.3123L177.063 55.608ZM177.959 56.616L176.564 57.1663L185.132 78.8943L186.528 78.344L187.923 77.7937L179.355 56.0657L177.959 56.616ZM186.528 78.344L187.923 78.8943L196.491 57.1663L195.096 56.616L193.7 56.0657L185.132 77.7937L186.528 78.344ZM195.096 56.616L196.461 57.2367C196.518 57.1118 196.611 56.9916 196.797 56.8735L195.992 55.608L195.186 54.3425C194.55 54.747 194.046 55.2989 193.73 55.9953L195.096 56.616ZM195.992 55.608L196.824 56.8561C197.053 56.703 197.234 56.66 197.392 56.66V55.16V53.66C196.578 53.66 195.826 53.9157 195.159 54.3599L195.992 55.608ZM197.392 55.16V56.66C197.681 56.66 197.881 56.7457 198.084 56.9647L199.184 55.944L200.283 54.9233C199.515 54.0969 198.521 53.66 197.392 53.66V55.16ZM199.184 55.944L198.123 57.0047C198.317 57.1983 198.411 57.4096 198.411 57.736H199.911H201.411C201.411 56.6437 201.021 55.6603 200.244 54.8833L199.184 55.944ZM199.911 57.736H198.411C198.411 57.8066 198.388 57.9952 198.247 58.3351L199.632 58.912L201.016 59.4889C201.248 58.9328 201.411 58.3374 201.411 57.736H199.911ZM199.632 58.912L198.248 58.3332L188.504 81.6292L189.888 82.208L191.271 82.7868L201.015 59.4908L199.632 58.912ZM189.888 82.208L188.528 81.5737C188.386 81.8782 188.151 82.174 187.768 82.4544L188.655 83.664L189.543 84.8736C190.28 84.3326 190.866 83.6578 191.247 82.8423L189.888 82.208ZM188.655 83.664L187.729 82.4845C187.489 82.6731 187.205 82.78 186.807 82.78V84.28V85.78C187.829 85.78 188.777 85.4762 189.582 84.8435L188.655 83.664ZM186.807 84.28V82.78H186.248V84.28V85.78H186.807V84.28ZM209.496 80.696L208.42 81.7412L208.428 81.749L208.435 81.7567L209.496 80.696ZM207.088 62.552L208.473 63.1289L208.476 63.1208L207.088 62.552ZM211.456 57.008L212.33 58.227L211.456 57.008ZM226.352 56.896L225.509 58.1368L225.517 58.1423L225.525 58.1477L226.352 56.896ZM230.832 62.048L229.476 62.6901L229.481 62.6998L229.486 62.7094L230.832 62.048ZM231.672 70.784L230.611 69.7233L230.59 69.7445L230.57 69.7666L231.672 70.784ZM210.84 71.512V70.012H209.15L209.351 71.6898L210.84 71.512ZM213.696 77.56L212.661 78.6456L212.668 78.652L212.674 78.6583L213.696 77.56ZM224.896 79.352L225.271 80.8044L225.293 80.7988L225.314 80.7925L224.896 79.352ZM228.2 78.064L227.529 76.7224L228.2 78.064ZM230.776 78.456L231.79 77.3503L230.776 78.456ZM231 81.256L229.829 80.319L229.822 80.327L229.816 80.3351L231 81.256ZM229.992 82.096L229.274 80.7792L229.259 80.7874L229.244 80.7961L229.992 82.096ZM225.96 83.888L226.412 85.3184L226.423 85.3148L226.434 85.311L225.96 83.888ZM210.84 67.368L209.342 67.2816L209.251 68.868H210.84V67.368ZM227.36 67.368V68.868H228.949L228.858 67.2816L227.36 67.368ZM225.848 62.664L224.63 63.5395L224.639 63.5518L224.648 63.564L225.848 62.664ZM222.712 60.032L223.333 58.6664H223.333L222.712 60.032ZM215.432 60.032L214.811 58.6664L215.432 60.032ZM220.192 84.56V83.06C215.93 83.06 212.785 81.8635 210.557 79.6353L209.496 80.696L208.435 81.7567C211.359 84.6805 215.345 86.06 220.192 86.06V84.56ZM209.496 80.696L210.572 79.6508C208.378 77.3921 207.188 74.1519 207.188 69.72H205.688H204.188C204.188 74.6961 205.537 78.7732 208.42 81.7412L209.496 80.696ZM205.688 69.72H207.188C207.188 67.3701 207.619 65.1777 208.473 63.1289L207.088 62.552L205.703 61.9751C204.69 64.4063 204.188 66.9926 204.188 69.72H205.688ZM207.088 62.552L208.476 63.1208C209.304 61.1012 210.583 59.4797 212.33 58.227L211.456 57.008L210.582 55.789C208.372 57.3737 206.739 59.4481 205.7 61.9832L207.088 62.552ZM211.456 57.008L212.33 58.227C213.992 57.0354 216.201 56.38 219.072 56.38V54.88V53.38C215.746 53.38 212.877 54.1432 210.582 55.789L211.456 57.008ZM219.072 54.88V56.38C221.708 56.38 223.826 56.9933 225.509 58.1368L226.352 56.896L227.195 55.6552C224.921 54.1107 222.186 53.38 219.072 53.38V54.88ZM226.352 56.896L225.525 58.1477C227.277 59.3044 228.587 60.8117 229.476 62.6901L230.832 62.048L232.188 61.4059C231.061 59.0283 229.384 57.1009 227.179 55.6443L226.352 56.896ZM230.832 62.048L229.486 62.7094C230.424 64.6202 230.9 66.707 230.9 68.992H232.4H233.9C233.9 66.2743 233.33 63.7318 232.178 61.3866L230.832 62.048ZM232.4 68.992H230.9C230.9 69.3184 230.805 69.5297 230.611 69.7233L231.672 70.784L232.733 71.8447C233.51 71.0677 233.9 70.0843 233.9 68.992H232.4ZM231.672 70.784L230.57 69.7666C230.459 69.8868 230.275 70.012 229.824 70.012V71.512V73.012C230.941 73.012 231.989 72.6518 232.774 71.8014L231.672 70.784ZM229.824 71.512V70.012H210.84V71.512V73.012H229.824V71.512ZM210.84 71.512L209.351 71.6898C209.685 74.4876 210.769 76.8419 212.661 78.6456L213.696 77.56L214.731 76.4744C213.412 75.2168 212.593 73.539 212.329 71.3342L210.84 71.512ZM213.696 77.56L212.674 78.6583C214.648 80.4941 217.382 81.3 220.64 81.3V79.8V78.3C217.85 78.3 215.955 77.6126 214.718 76.4617L213.696 77.56ZM220.64 79.8V81.3C222.4 81.3 223.953 81.1446 225.271 80.8044L224.896 79.352L224.521 77.8996C223.525 78.1568 222.24 78.3 220.64 78.3V79.8ZM224.896 79.352L225.314 80.7925C226.556 80.432 227.742 79.9701 228.871 79.4056L228.2 78.064L227.529 76.7224C226.567 77.2033 225.551 77.6 224.478 77.9115L224.896 79.352ZM228.2 78.064L228.871 79.4056C228.938 79.3722 229.04 79.34 229.208 79.34V77.84V76.34C228.63 76.34 228.06 76.4571 227.529 76.7224L228.2 78.064ZM229.208 77.84V79.34C229.423 79.34 229.586 79.3998 229.762 79.5617L230.776 78.456L231.79 77.3503C231.07 76.6909 230.188 76.34 229.208 76.34V77.84ZM230.776 78.456L229.762 79.5617C229.885 79.6744 229.948 79.7887 229.948 80.024H231.448H232.948C232.948 78.9899 232.563 78.059 231.79 77.3503L230.776 78.456ZM231.448 80.024H229.948C229.948 80.1076 229.93 80.1924 229.829 80.319L231 81.256L232.171 82.193C232.667 81.5729 232.948 80.8364 232.948 80.024H231.448ZM231 81.256L229.816 80.3351C229.693 80.4931 229.522 80.6439 229.274 80.7792L229.992 82.096L230.71 83.4128C231.284 83.1001 231.784 82.6909 232.184 82.1769L231 81.256ZM229.992 82.096L229.244 80.7961C228.105 81.4515 226.854 82.0089 225.486 82.465L225.96 83.888L226.434 85.311C227.978 84.7964 229.415 84.1592 230.74 83.3959L229.992 82.096ZM225.96 83.888L225.508 82.4576C224.299 82.8397 222.549 83.06 220.192 83.06V84.56V86.06C222.688 86.06 224.784 85.8323 226.412 85.3184L225.96 83.888ZM210.84 67.368V68.868H227.36V67.368V65.868H210.84V67.368ZM227.36 67.368L228.858 67.2816C228.734 65.1336 228.167 63.2565 227.048 61.764L225.848 62.664L224.648 63.564C225.321 64.4609 225.762 65.7197 225.862 67.4544L227.36 67.368ZM225.848 62.664L227.066 61.7885C226.068 60.4003 224.824 59.3442 223.333 58.6664L222.712 60.032L222.091 61.3975C223.064 61.8398 223.91 62.5384 224.63 63.5395L225.848 62.664ZM222.712 60.032L223.333 58.6664C221.932 58.0296 220.508 57.692 219.072 57.692V59.192V60.692C220.026 60.692 221.028 60.9144 222.091 61.3975L222.712 60.032ZM219.072 59.192V57.692C217.636 57.692 216.212 58.0296 214.811 58.6664L215.432 60.032L216.053 61.3975C217.116 60.9144 218.118 60.692 219.072 60.692V59.192ZM215.432 60.032L214.811 58.6664C213.32 59.3442 212.076 60.4003 211.078 61.7885L212.296 62.664L213.514 63.5395C214.234 62.5384 215.08 61.8398 216.053 61.3975L215.432 60.032ZM212.296 62.664L211.078 61.7885C210.008 63.2777 209.466 65.1455 209.342 67.2816L210.84 67.368L212.338 67.4544C212.438 65.7078 212.867 64.4396 213.514 63.5395L212.296 62.664ZM241.871 83.552L242.931 82.4913L241.871 83.552ZM241.871 55.944L242.931 57.0047L242.951 56.985L242.97 56.9647L241.871 55.944ZM245.455 55.944L244.356 56.9647L244.393 57.0054L244.434 57.0432L245.455 55.944ZM246.239 60.144H244.739V64.644L247.439 61.044L246.239 60.144ZM249.935 56.504L250.83 57.7077L249.935 56.504ZM257.047 55.608L255.945 56.6254L255.965 56.6475L255.986 56.6687L257.047 55.608ZM257.047 59.136L256.029 58.0338V58.0338L257.047 59.136ZM249.935 61.208L250.706 62.4942L250.718 62.4872L250.73 62.48L249.935 61.208ZM246.239 64.736L244.991 63.9039L244.739 64.2818V64.736H246.239ZM245.455 83.552L244.434 82.4528L244.414 82.4717L244.394 82.4913L245.455 83.552ZM243.663 84.28V82.78C243.336 82.78 243.125 82.685 242.931 82.4913L241.871 83.552L240.81 84.6127C241.587 85.3896 242.57 85.78 243.663 85.78V84.28ZM241.871 83.552L242.931 82.4913C242.738 82.2977 242.643 82.0864 242.643 81.76H241.143H239.643C239.643 82.8523 240.033 83.8357 240.81 84.6127L241.871 83.552ZM241.143 81.76H242.643V57.736H241.143H239.643V81.76H241.143ZM241.143 57.736H242.643C242.643 57.4096 242.738 57.1983 242.931 57.0047L241.871 55.944L240.81 54.8833C240.033 55.6603 239.643 56.6437 239.643 57.736H241.143ZM241.871 55.944L242.97 56.9647C243.173 56.7457 243.373 56.66 243.663 56.66V55.16V53.66C242.534 53.66 241.539 54.0969 240.772 54.9233L241.871 55.944ZM243.663 55.16V56.66C243.952 56.66 244.152 56.7457 244.356 56.9647L245.455 55.944L246.554 54.9233C245.787 54.0969 244.792 53.66 243.663 53.66V55.16ZM245.455 55.944L244.434 57.0432C244.653 57.2465 244.739 57.4464 244.739 57.736H246.239H247.739C247.739 56.6069 247.302 55.6122 246.475 54.8448L245.455 55.944ZM246.239 57.736H244.739V60.144H246.239H247.739V57.736H246.239ZM246.239 60.144L247.439 61.044C248.354 59.8242 249.48 58.7112 250.83 57.7077L249.935 56.504L249.04 55.3003C247.477 56.4622 246.14 57.7758 245.039 59.244L246.239 60.144ZM249.935 56.504L250.83 57.7077C252.008 56.8313 253.388 56.38 255.031 56.38V54.88V53.38C252.791 53.38 250.773 54.0114 249.04 55.3003L249.935 56.504ZM255.031 54.88V56.38H255.311V54.88V53.38H255.031V54.88ZM255.311 54.88V56.38C255.636 56.38 255.803 56.4723 255.945 56.6254L257.047 55.608L258.149 54.5906C257.394 53.773 256.404 53.38 255.311 53.38V54.88ZM257.047 55.608L255.986 56.6687C256.18 56.8623 256.275 57.0736 256.275 57.4H257.775H259.275C259.275 56.3077 258.884 55.3243 258.107 54.5473L257.047 55.608ZM257.775 57.4H256.275C256.275 57.7254 256.182 57.8925 256.029 58.0338L257.047 59.136L258.064 60.2382C258.882 59.4835 259.275 58.4933 259.275 57.4H257.775ZM257.047 59.136L256.029 58.0338C255.858 58.1922 255.621 58.308 255.199 58.308V59.808V61.308C256.27 61.308 257.265 60.9758 258.064 60.2382L257.047 59.136ZM255.199 59.808V58.308H254.919V59.808V61.308H255.199V59.808ZM254.919 59.808V58.308C252.82 58.308 250.881 58.8477 249.14 59.936L249.935 61.208L250.73 62.48C251.975 61.7016 253.359 61.308 254.919 61.308V59.808ZM249.935 61.208L249.163 59.9218C247.478 60.9326 246.084 62.2641 244.991 63.9039L246.239 64.736L247.487 65.5681C248.335 64.2959 249.405 63.2754 250.706 62.4942L249.935 61.208ZM246.239 64.736H244.739V81.76H246.239H247.739V64.736H246.239ZM246.239 81.76H244.739C244.739 82.0496 244.653 82.2495 244.434 82.4528L245.455 83.552L246.475 84.6512C247.302 83.8838 247.739 82.8891 247.739 81.76H246.239ZM245.455 83.552L244.394 82.4913C244.2 82.685 243.989 82.78 243.663 82.78V84.28V85.78C244.755 85.78 245.738 85.3896 246.515 84.6127L245.455 83.552ZM268.22 83.888L267.826 85.3352L267.834 85.3374L268.22 83.888ZM263.628 82.04L262.763 83.2655L262.831 83.313L262.903 83.3529L263.628 82.04ZM263.292 78.68L264.398 79.6936L264.418 79.6716L264.437 79.6489L263.292 78.68ZM265.868 78.176L265.259 79.5467L265.868 78.176ZM269.172 79.352L268.766 80.796L268.778 80.7991L269.172 79.352ZM278.188 78.848L279.042 80.0813L279.051 80.0747L278.188 78.848ZM278.468 73.976L277.724 75.2784L277.737 75.2857L277.75 75.2928L278.468 73.976ZM275.332 72.856L274.948 74.3061L274.973 74.3126L274.998 74.3183L275.332 72.856ZM271.3 71.848L270.919 73.2986L270.936 73.3033L270.955 73.3076L271.3 71.848ZM267.212 70.392L266.541 71.7336L266.565 71.7453L266.589 71.7562L267.212 70.392ZM264.076 67.872L262.861 68.7518L262.879 68.7756L262.897 68.7987L264.076 67.872ZM265.644 57.4L266.659 58.5048L265.644 57.4ZM278.132 55.272L277.846 56.7444L277.853 56.7459L278.132 55.272ZM281.94 56.28L281.439 57.6936L281.483 57.7094L281.528 57.7223L281.94 56.28ZM283.116 57.176L281.821 57.9318L281.859 57.9971L281.903 58.0583L283.116 57.176ZM282.892 59.976L281.832 58.9153L281.809 58.9384L281.787 58.9624L282.892 59.976ZM280.932 60.648L280.458 62.071L280.689 62.148H280.932V60.648ZM280.596 60.536L281.071 59.113H281.071L280.596 60.536ZM277.628 59.808L277.365 61.2847L277.373 61.2862L277.628 59.808ZM269.452 60.648L268.62 59.3999L269.452 60.648ZM268.948 65.688L268.116 66.9361L268.129 66.9449L268.143 66.9535L268.948 65.688ZM272.084 66.976L271.7 68.4261L271.725 68.4326L271.75 68.4383L272.084 66.976ZM276.172 67.928L275.827 69.3876L275.835 69.3896L276.172 67.928ZM280.26 69.384L279.589 70.7256L279.613 70.7373L279.637 70.7482L280.26 69.384ZM283.396 71.904L282.181 72.7838L282.191 72.7973L282.201 72.8106L283.396 71.904ZM281.884 82.152L282.885 83.2693L282.886 83.2681L281.884 82.152ZM273.82 84.56V83.06C271.875 83.06 270.14 82.8476 268.607 82.4386L268.22 83.888L267.834 85.3374C269.66 85.8244 271.659 86.06 273.82 86.06V84.56ZM268.22 83.888L268.615 82.4409C267.082 82.0227 265.663 81.4505 264.354 80.7271L263.628 82.04L262.903 83.3529C264.431 84.1975 266.073 84.8573 267.826 85.3351L268.22 83.888ZM263.628 82.04L264.493 80.8145C264.261 80.6507 264.176 80.494 264.176 80.192H262.676H261.176C261.176 81.458 261.726 82.5333 262.763 83.2655L263.628 82.04ZM262.676 80.192H264.176C264.176 80.0407 264.217 79.8906 264.398 79.6936L263.292 78.68L262.187 77.6664C261.546 78.3654 261.176 79.2233 261.176 80.192H262.676ZM263.292 78.68L264.437 79.6489C264.564 79.4997 264.668 79.452 264.86 79.452V77.952V76.452C263.783 76.452 262.842 76.8896 262.147 77.7111L263.292 78.68ZM264.86 77.952V79.452C264.967 79.452 265.097 79.4745 265.259 79.5467L265.868 78.176L266.477 76.8053C265.968 76.5788 265.425 76.452 264.86 76.452V77.952ZM265.868 78.176L265.259 79.5467C266.34 80.0273 267.511 80.4428 268.766 80.796L269.172 79.352L269.578 77.908C268.445 77.5892 267.412 77.2207 266.477 76.8053L265.868 78.176ZM269.172 79.352L268.778 80.7991C270.169 81.1786 271.744 81.356 273.484 81.356V79.856V78.356C271.939 78.356 270.64 78.1974 269.567 77.9049L269.172 79.352ZM273.484 79.856V81.356C275.735 81.356 277.686 81.0201 279.042 80.0813L278.188 78.848L277.334 77.6147C276.749 78.0199 275.564 78.356 273.484 78.356V79.856ZM278.188 78.848L279.051 80.0747C280.473 79.0746 281.2 77.6202 281.2 75.88H279.7H278.2C278.2 76.6785 277.92 77.2027 277.325 77.6213L278.188 78.848ZM279.7 75.88H281.2C281.2 74.423 280.408 73.3257 279.187 72.6592L278.468 73.976L277.75 75.2928C278.171 75.5223 278.2 75.6944 278.2 75.88H279.7ZM278.468 73.976L279.212 72.6736C278.255 72.1263 277.054 71.711 275.666 71.3937L275.332 72.856L274.998 74.3183C276.223 74.5984 277.114 74.9297 277.724 75.2784L278.468 73.976ZM275.332 72.856L275.716 71.4059C274.433 71.0662 273.076 70.7271 271.646 70.3884L271.3 71.848L270.955 73.3076C272.362 73.6409 273.693 73.9738 274.948 74.3061L275.332 72.856ZM271.3 71.848L271.682 70.3974C270.345 70.0454 269.063 69.5887 267.836 69.0278L267.212 70.392L266.589 71.7562C267.975 72.3899 269.419 72.9039 270.919 73.2986L271.3 71.848ZM267.212 70.392L267.883 69.0504C266.798 68.5079 265.931 67.8048 265.256 66.9453L264.076 67.872L262.897 68.7987C263.864 70.0298 265.088 71.0067 266.541 71.7336L267.212 70.392ZM264.076 67.872L265.291 66.9922C264.735 66.2247 264.4 65.1739 264.4 63.728H262.9H261.4C261.4 65.6421 261.849 67.354 262.861 68.7518L264.076 67.872ZM262.9 63.728H264.4C264.4 61.5988 265.147 59.8937 266.659 58.5048L265.644 57.4L264.63 56.2952C262.483 58.2663 261.4 60.7799 261.4 63.728H262.9ZM265.644 57.4L266.659 58.5048C268.108 57.1743 270.405 56.38 273.82 56.38V54.88V53.38C269.993 53.38 266.84 54.2657 264.63 56.2952L265.644 57.4ZM273.82 54.88V56.38C275.266 56.38 276.607 56.5034 277.846 56.7444L278.132 55.272L278.419 53.7996C276.97 53.5179 275.436 53.38 273.82 53.38V54.88ZM278.132 55.272L277.853 56.7459C279.17 56.9949 280.363 57.3121 281.439 57.6936L281.94 56.28L282.442 54.8664C281.202 54.4266 279.857 54.0718 278.411 53.7981L278.132 55.272ZM281.94 56.28L281.528 57.7223C281.699 57.771 281.764 57.8354 281.821 57.9318L283.116 57.176L284.412 56.4202C283.945 55.6206 283.227 55.0877 282.352 54.8377L281.94 56.28ZM283.116 57.176L281.903 58.0583C282.06 58.2741 282.064 58.3828 282.064 58.408H283.564H285.064C285.064 57.6119 284.77 56.8992 284.329 56.2937L283.116 57.176ZM283.564 58.408H282.064C282.064 58.5815 282.017 58.7297 281.832 58.9153L282.892 59.976L283.953 61.0367C284.663 60.3263 285.064 59.4292 285.064 58.408H283.564ZM282.892 59.976L281.787 58.9624C281.674 59.0853 281.56 59.148 281.324 59.148V60.648V62.148C282.358 62.148 283.289 61.7627 283.998 60.9896L282.892 59.976ZM281.324 60.648V59.148C281.324 59.148 281.324 59.148 281.323 59.148C281.323 59.148 281.323 59.148 281.322 59.148C281.322 59.148 281.322 59.148 281.322 59.148C281.321 59.148 281.321 59.148 281.321 59.148C281.32 59.148 281.32 59.148 281.32 59.148C281.32 59.148 281.319 59.148 281.319 59.148C281.319 59.148 281.318 59.148 281.318 59.148C281.318 59.148 281.318 59.148 281.317 59.148C281.317 59.148 281.317 59.148 281.316 59.148C281.316 59.148 281.316 59.148 281.316 59.148C281.315 59.148 281.315 59.148 281.315 59.148C281.314 59.148 281.314 59.148 281.314 59.148C281.313 59.148 281.313 59.148 281.313 59.148C281.313 59.148 281.312 59.148 281.312 59.148C281.312 59.148 281.311 59.148 281.311 59.148C281.311 59.148 281.311 59.148 281.31 59.148C281.31 59.148 281.31 59.148 281.309 59.148C281.309 59.148 281.309 59.148 281.309 59.148C281.308 59.148 281.308 59.148 281.308 59.148C281.307 59.148 281.307 59.148 281.307 59.148C281.307 59.148 281.306 59.148 281.306 59.148C281.306 59.148 281.305 59.148 281.305 59.148C281.305 59.148 281.305 59.148 281.304 59.148C281.304 59.148 281.304 59.148 281.303 59.148C281.303 59.148 281.303 59.148 281.303 59.148C281.302 59.148 281.302 59.148 281.302 59.148C281.301 59.148 281.301 59.148 281.301 59.148C281.3 59.148 281.3 59.148 281.3 59.148C281.3 59.148 281.299 59.148 281.299 59.148C281.299 59.148 281.298 59.148 281.298 59.148C281.298 59.148 281.298 59.148 281.297 59.148C281.297 59.148 281.297 59.148 281.296 59.148C281.296 59.148 281.296 59.148 281.296 59.148C281.295 59.148 281.295 59.148 281.295 59.148C281.294 59.148 281.294 59.148 281.294 59.148C281.294 59.148 281.293 59.148 281.293 59.148C281.293 59.148 281.292 59.148 281.292 59.148C281.292 59.148 281.292 59.148 281.291 59.148C281.291 59.148 281.291 59.148 281.29 59.148C281.29 59.148 281.29 59.148 281.29 59.148C281.289 59.148 281.289 59.148 281.289 59.148C281.288 59.148 281.288 59.148 281.288 59.148C281.288 59.148 281.287 59.148 281.287 59.148C281.287 59.148 281.286 59.148 281.286 59.148C281.286 59.148 281.286 59.148 281.285 59.148C281.285 59.148 281.285 59.148 281.284 59.148C281.284 59.148 281.284 59.148 281.284 59.148C281.283 59.148 281.283 59.148 281.283 59.148C281.282 59.148 281.282 59.148 281.282 59.148C281.282 59.148 281.281 59.148 281.281 59.148C281.281 59.148 281.28 59.148 281.28 59.148C281.28 59.148 281.28 59.148 281.279 59.148C281.279 59.148 281.279 59.148 281.278 59.148C281.278 59.148 281.278 59.148 281.278 59.148C281.277 59.148 281.277 59.148 281.277 59.148C281.276 59.148 281.276 59.148 281.276 59.148C281.276 59.148 281.275 59.148 281.275 59.148C281.275 59.148 281.275 59.148 281.274 59.148C281.274 59.148 281.274 59.148 281.273 59.148C281.273 59.148 281.273 59.148 281.273 59.148C281.272 59.148 281.272 59.148 281.272 59.148C281.271 59.148 281.271 59.148 281.271 59.148C281.271 59.148 281.27 59.148 281.27 59.148C281.27 59.148 281.269 59.148 281.269 59.148C281.269 59.148 281.269 59.148 281.268 59.148C281.268 59.148 281.268 59.148 281.267 59.148C281.267 59.148 281.267 59.148 281.267 59.148C281.266 59.148 281.266 59.148 281.266 59.148C281.265 59.148 281.265 59.148 281.265 59.148C281.265 59.148 281.264 59.148 281.264 59.148C281.264 59.148 281.263 59.148 281.263 59.148C281.263 59.148 281.263 59.148 281.262 59.148C281.262 59.148 281.262 59.148 281.262 59.148C281.261 59.148 281.261 59.148 281.261 59.148C281.26 59.148 281.26 59.148 281.26 59.148C281.26 59.148 281.259 59.148 281.259 59.148C281.259 59.148 281.258 59.148 281.258 59.148C281.258 59.148 281.258 59.148 281.257 59.148C281.257 59.148 281.257 59.148 281.256 59.148C281.256 59.148 281.256 59.148 281.256 59.148C281.255 59.148 281.255 59.148 281.255 59.148C281.255 59.148 281.254 59.148 281.254 59.148C281.254 59.148 281.253 59.148 281.253 59.148C281.253 59.148 281.253 59.148 281.252 59.148C281.252 59.148 281.252 59.148 281.251 59.148C281.251 59.148 281.251 59.148 281.251 59.148C281.25 59.148 281.25 59.148 281.25 59.148C281.249 59.148 281.249 59.148 281.249 59.148C281.249 59.148 281.248 59.148 281.248 59.148C281.248 59.148 281.248 59.148 281.247 59.148C281.247 59.148 281.247 59.148 281.246 59.148C281.246 59.148 281.246 59.148 281.246 59.148C281.245 59.148 281.245 59.148 281.245 59.148C281.244 59.148 281.244 59.148 281.244 59.148C281.244 59.148 281.243 59.148 281.243 59.148C281.243 59.148 281.242 59.148 281.242 59.148C281.242 59.148 281.242 59.148 281.241 59.148C281.241 59.148 281.241 59.148 281.241 59.148C281.24 59.148 281.24 59.148 281.24 59.148C281.239 59.148 281.239 59.148 281.239 59.148C281.239 59.148 281.238 59.148 281.238 59.148C281.238 59.148 281.238 59.148 281.237 59.148C281.237 59.148 281.237 59.148 281.236 59.148C281.236 59.148 281.236 59.148 281.236 59.148C281.235 59.148 281.235 59.148 281.235 59.148C281.234 59.148 281.234 59.148 281.234 59.148C281.234 59.148 281.233 59.148 281.233 59.148C281.233 59.148 281.233 59.148 281.232 59.148C281.232 59.148 281.232 59.148 281.231 59.148C281.231 59.148 281.231 59.148 281.231 59.148C281.23 59.148 281.23 59.148 281.23 59.148C281.229 59.148 281.229 59.148 281.229 59.148C281.229 59.148 281.228 59.148 281.228 59.148C281.228 59.148 281.228 59.148 281.227 59.148C281.227 59.148 281.227 59.148 281.226 59.148C281.226 59.148 281.226 59.148 281.226 59.148C281.225 59.148 281.225 59.148 281.225 59.148C281.225 59.148 281.224 59.148 281.224 59.148C281.224 59.148 281.223 59.148 281.223 59.148C281.223 59.148 281.223 59.148 281.222 59.148C281.222 59.148 281.222 59.148 281.221 59.148C281.221 59.148 281.221 59.148 281.221 59.148C281.22 59.148 281.22 59.148 281.22 59.148C281.22 59.148 281.219 59.148 281.219 59.148C281.219 59.148 281.218 59.148 281.218 59.148C281.218 59.148 281.218 59.148 281.217 59.148C281.217 59.148 281.217 59.148 281.217 59.148C281.216 59.148 281.216 59.148 281.216 59.148C281.215 59.148 281.215 59.148 281.215 59.148C281.215 59.148 281.214 59.148 281.214 59.148C281.214 59.148 281.214 59.148 281.213 59.148C281.213 59.148 281.213 59.148 281.212 59.148C281.212 59.148 281.212 59.148 281.212 59.148C281.211 59.148 281.211 59.148 281.211 59.148C281.211 59.148 281.21 59.148 281.21 59.148C281.21 59.148 281.209 59.148 281.209 59.148C281.209 59.148 281.209 59.148 281.208 59.148C281.208 59.148 281.208 59.148 281.208 59.148C281.207 59.148 281.207 59.148 281.207 59.148C281.206 59.148 281.206 59.148 281.206 59.148C281.206 59.148 281.205 59.148 281.205 59.148C281.205 59.148 281.205 59.148 281.204 59.148C281.204 59.148 281.204 59.148 281.203 59.148C281.203 59.148 281.203 59.148 281.203 59.148C281.202 59.148 281.202 59.148 281.202 59.148C281.202 59.148 281.201 59.148 281.201 59.148C281.201 59.148 281.201 59.148 281.2 59.148C281.2 59.148 281.2 59.148 281.199 59.148C281.199 59.148 281.199 59.148 281.199 59.148C281.198 59.148 281.198 59.148 281.198 59.148C281.198 59.148 281.197 59.148 281.197 59.148C281.197 59.148 281.196 59.148 281.196 59.148C281.196 59.148 281.196 59.148 281.195 59.148C281.195 59.148 281.195 59.148 281.195 59.148C281.194 59.148 281.194 59.148 281.194 59.148C281.193 59.148 281.193 59.148 281.193 59.148C281.193 59.148 281.192 59.148 281.192 59.148C281.192 59.148 281.192 59.148 281.191 59.148C281.191 59.148 281.191 59.148 281.191 59.148C281.19 59.148 281.19 59.148 281.19 59.148C281.189 59.148 281.189 59.148 281.189 59.148C281.189 59.148 281.188 59.148 281.188 59.148C281.188 59.148 281.188 59.148 281.187 59.148C281.187 59.148 281.187 59.148 281.186 59.148C281.186 59.148 281.186 59.148 281.186 59.148C281.185 59.148 281.185 59.148 281.185 59.148C281.185 59.148 281.184 59.148 281.184 59.148C281.184 59.148 281.184 59.148 281.183 59.148C281.183 59.148 281.183 59.148 281.182 59.148C281.182 59.148 281.182 59.148 281.182 59.148C281.181 59.148 281.181 59.148 281.181 59.148C281.181 59.148 281.18 59.148 281.18 59.148C281.18 59.148 281.18 59.148 281.179 59.148C281.179 59.148 281.179 59.148 281.178 59.148C281.178 59.148 281.178 59.148 281.178 59.148C281.177 59.148 281.177 59.148 281.177 59.148C281.177 59.148 281.176 59.148 281.176 59.148C281.176 59.148 281.176 59.148 281.175 59.148C281.175 59.148 281.175 59.148 281.174 59.148C281.174 59.148 281.174 59.148 281.174 59.148C281.173 59.148 281.173 59.148 281.173 59.148C281.173 59.148 281.172 59.148 281.172 59.148C281.172 59.148 281.172 59.148 281.171 59.148C281.171 59.148 281.171 59.148 281.17 59.148C281.17 59.148 281.17 59.148 281.17 59.148C281.169 59.148 281.169 59.148 281.169 59.148C281.169 59.148 281.168 59.148 281.168 59.148C281.168 59.148 281.168 59.148 281.167 59.148C281.167 59.148 281.167 59.148 281.167 59.148C281.166 59.148 281.166 59.148 281.166 59.148C281.165 59.148 281.165 59.148 281.165 59.148C281.165 59.148 281.164 59.148 281.164 59.148C281.164 59.148 281.164 59.148 281.163 59.148C281.163 59.148 281.163 59.148 281.163 59.148C281.162 59.148 281.162 59.148 281.162 59.148C281.161 59.148 281.161 59.148 281.161 59.148C281.161 59.148 281.16 59.148 281.16 59.148C281.16 59.148 281.16 59.148 281.159 59.148C281.159 59.148 281.159 59.148 281.159 59.148C281.158 59.148 281.158 59.148 281.158 59.148C281.158 59.148 281.157 59.148 281.157 59.148C281.157 59.148 281.156 59.148 281.156 59.148C281.156 59.148 281.156 59.148 281.155 59.148C281.155 59.148 281.155 59.148 281.155 59.148C281.154 59.148 281.154 59.148 281.154 59.148C281.154 59.148 281.153 59.148 281.153 59.148C281.153 59.148 281.153 59.148 281.152 59.148C281.152 59.148 281.152 59.148 281.151 59.148C281.151 59.148 281.151 59.148 281.151 59.148C281.15 59.148 281.15 59.148 281.15 59.148C281.15 59.148 281.149 59.148 281.149 59.148C281.149 59.148 281.149 59.148 281.148 59.148C281.148 59.148 281.148 59.148 281.148 59.148C281.147 59.148 281.147 59.148 281.147 59.148C281.147 59.148 281.146 59.148 281.146 59.148C281.146 59.148 281.145 59.148 281.145 59.148C281.145 59.148 281.145 59.148 281.144 59.148C281.144 59.148 281.144 59.148 281.144 59.148C281.143 59.148 281.143 59.148 281.143 59.148C281.143 59.148 281.142 59.148 281.142 59.148C281.142 59.148 281.142 59.148 281.141 59.148C281.141 59.148 281.141 59.148 281.141 59.148C281.14 59.148 281.14 59.148 281.14 59.148C281.139 59.148 281.139 59.148 281.139 59.148C281.139 59.148 281.138 59.148 281.138 59.148C281.138 59.148 281.138 59.148 281.137 59.148C281.137 59.148 281.137 59.148 281.137 59.148C281.136 59.148 281.136 59.148 281.136 59.148C281.136 59.148 281.135 59.148 281.135 59.148C281.135 59.148 281.135 59.148 281.134 59.148C281.134 59.148 281.134 59.148 281.134 59.148C281.133 59.148 281.133 59.148 281.133 59.148C281.132 59.148 281.132 59.148 281.132 59.148C281.132 59.148 281.131 59.148 281.131 59.148C281.131 59.148 281.131 59.148 281.13 59.148C281.13 59.148 281.13 59.148 281.13 59.148C281.129 59.148 281.129 59.148 281.129 59.148C281.129 59.148 281.128 59.148 281.128 59.148C281.128 59.148 281.128 59.148 281.127 59.148C281.127 59.148 281.127 59.148 281.127 59.148C281.126 59.148 281.126 59.148 281.126 59.148C281.126 59.148 281.125 59.148 281.125 59.148C281.125 59.148 281.124 59.148 281.124 59.148C281.124 59.148 281.124 59.148 281.123 59.148C281.123 59.148 281.123 59.148 281.123 59.148C281.122 59.148 281.122 59.148 281.122 59.148C281.122 59.148 281.121 59.148 281.121 59.148C281.121 59.148 281.121 59.148 281.12 59.148C281.12 59.148 281.12 59.148 281.12 59.148C281.119 59.148 281.119 59.148 281.119 59.148C281.119 59.148 281.118 59.148 281.118 59.148C281.118 59.148 281.118 59.148 281.117 59.148C281.117 59.148 281.117 59.148 281.117 59.148C281.116 59.148 281.116 59.148 281.116 59.148C281.116 59.148 281.115 59.148 281.115 59.148C281.115 59.148 281.115 59.148 281.114 59.148C281.114 59.148 281.114 59.148 281.113 59.148C281.113 59.148 281.113 59.148 281.113 59.148C281.112 59.148 281.112 59.148 281.112 59.148C281.112 59.148 281.111 59.148 281.111 59.148C281.111 59.148 281.111 59.148 281.11 59.148C281.11 59.148 281.11 59.148 281.11 59.148C281.109 59.148 281.109 59.148 281.109 59.148C281.109 59.148 281.108 59.148 281.108 59.148C281.108 59.148 281.108 59.148 281.107 59.148C281.107 59.148 281.107 59.148 281.107 59.148C281.106 59.148 281.106 59.148 281.106 59.148C281.106 59.148 281.105 59.148 281.105 59.148C281.105 59.148 281.105 59.148 281.104 59.148C281.104 59.148 281.104 59.148 281.104 59.148C281.103 59.148 281.103 59.148 281.103 59.148C281.103 59.148 281.102 59.148 281.102 59.148C281.102 59.148 281.102 59.148 281.101 59.148C281.101 59.148 281.101 59.148 281.101 59.148C281.1 59.148 281.1 59.148 281.1 59.148C281.1 59.148 281.099 59.148 281.099 59.148C281.099 59.148 281.099 59.148 281.098 59.148C281.098 59.148 281.098 59.148 281.098 59.148C281.097 59.148 281.097 59.148 281.097 59.148C281.096 59.148 281.096 59.148 281.096 59.148C281.096 59.148 281.095 59.148 281.095 59.148C281.095 59.148 281.095 59.148 281.094 59.148C281.094 59.148 281.094 59.148 281.094 59.148C281.093 59.148 281.093 59.148 281.093 59.148C281.093 59.148 281.092 59.148 281.092 59.148C281.092 59.148 281.092 59.148 281.091 59.148C281.091 59.148 281.091 59.148 281.091 59.148C281.09 59.148 281.09 59.148 281.09 59.148C281.09 59.148 281.089 59.148 281.089 59.148C281.089 59.148 281.089 59.148 281.088 59.148C281.088 59.148 281.088 59.148 281.088 59.148C281.087 59.148 281.087 59.148 281.087 59.148C281.087 59.148 281.086 59.148 281.086 59.148C281.086 59.148 281.086 59.148 281.085 59.148C281.085 59.148 281.085 59.148 281.085 59.148C281.084 59.148 281.084 59.148 281.084 59.148C281.084 59.148 281.083 59.148 281.083 59.148C281.083 59.148 281.083 59.148 281.082 59.148C281.082 59.148 281.082 59.148 281.082 59.148C281.081 59.148 281.081 59.148 281.081 59.148C281.081 59.148 281.08 59.148 281.08 59.148C281.08 59.148 281.08 59.148 281.079 59.148C281.079 59.148 281.079 59.148 281.079 59.148C281.078 59.148 281.078 59.148 281.078 59.148C281.078 59.148 281.077 59.148 281.077 59.148C281.077 59.148 281.077 59.148 281.077 59.148C281.076 59.148 281.076 59.148 281.076 59.148C281.076 59.148 281.075 59.148 281.075 59.148C281.075 59.148 281.075 59.148 281.074 59.148C281.074 59.148 281.074 59.148 281.074 59.148C281.073 59.148 281.073 59.148 281.073 59.148C281.073 59.148 281.072 59.148 281.072 59.148C281.072 59.148 281.072 59.148 281.071 59.148C281.071 59.148 281.071 59.148 281.071 59.148C281.07 59.148 281.07 59.148 281.07 59.148C281.07 59.148 281.069 59.148 281.069 59.148C281.069 59.148 281.069 59.148 281.068 59.148C281.068 59.148 281.068 59.148 281.068 59.148C281.067 59.148 281.067 59.148 281.067 59.148C281.067 59.148 281.066 59.148 281.066 59.148C281.066 59.148 281.066 59.148 281.065 59.148C281.065 59.148 281.065 59.148 281.065 59.148C281.064 59.148 281.064 59.148 281.064 59.148C281.064 59.148 281.063 59.148 281.063 59.148C281.063 59.148 281.063 59.148 281.062 59.148C281.062 59.148 281.062 59.148 281.062 59.148C281.061 59.148 281.061 59.148 281.061 59.148C281.061 59.148 281.06 59.148 281.06 59.148C281.06 59.148 281.06 59.148 281.059 59.148C281.059 59.148 281.059 59.148 281.059 59.148C281.059 59.148 281.058 59.148 281.058 59.148C281.058 59.148 281.058 59.148 281.057 59.148C281.057 59.148 281.057 59.148 281.057 59.148C281.056 59.148 281.056 59.148 281.056 59.148C281.056 59.148 281.055 59.148 281.055 59.148C281.055 59.148 281.055 59.148 281.054 59.148C281.054 59.148 281.054 59.148 281.054 59.148C281.053 59.148 281.053 59.148 281.053 59.148C281.053 59.148 281.052 59.148 281.052 59.148C281.052 59.148 281.052 59.148 281.051 59.148C281.051 59.148 281.051 59.148 281.051 59.148C281.05 59.148 281.05 59.148 281.05 59.148C281.05 59.148 281.049 59.148 281.049 59.148C281.049 59.148 281.049 59.148 281.049 59.148C281.048 59.148 281.048 59.148 281.048 59.148C281.048 59.148 281.047 59.148 281.047 59.148C281.047 59.148 281.047 59.148 281.046 59.148C281.046 59.148 281.046 59.148 281.046 59.148C281.045 59.148 281.045 59.148 281.045 59.148C281.045 59.148 281.044 59.148 281.044 59.148C281.044 59.148 281.044 59.148 281.043 59.148C281.043 59.148 281.043 59.148 281.043 59.148C281.042 59.148 281.042 59.148 281.042 59.148C281.042 59.148 281.042 59.148 281.041 59.148C281.041 59.148 281.041 59.148 281.041 59.148C281.04 59.148 281.04 59.148 281.04 59.148C281.04 59.148 281.039 59.148 281.039 59.148C281.039 59.148 281.039 59.148 281.038 59.148C281.038 59.148 281.038 59.148 281.038 59.148C281.037 59.148 281.037 59.148 281.037 59.148C281.037 59.148 281.036 59.148 281.036 59.148C281.036 59.148 281.036 59.148 281.035 59.148C281.035 59.148 281.035 59.148 281.035 59.148C281.035 59.148 281.034 59.148 281.034 59.148C281.034 59.148 281.034 59.148 281.033 59.148C281.033 59.148 281.033 59.148 281.033 59.148C281.032 59.148 281.032 59.148 281.032 59.148C281.032 59.148 281.031 59.148 281.031 59.148C281.031 59.148 281.031 59.148 281.03 59.148C281.03 59.148 281.03 59.148 281.03 59.148C281.03 59.148 281.029 59.148 281.029 59.148C281.029 59.148 281.029 59.148 281.028 59.148C281.028 59.148 281.028 59.148 281.028 59.148C281.027 59.148 281.027 59.148 281.027 59.148C281.027 59.148 281.026 59.148 281.026 59.148C281.026 59.148 281.026 59.148 281.025 59.148C281.025 59.148 281.025 59.148 281.025 59.148C281.025 59.148 281.024 59.148 281.024 59.148C281.024 59.148 281.024 59.148 281.023 59.148C281.023 59.148 281.023 59.148 281.023 59.148C281.022 59.148 281.022 59.148 281.022 59.148C281.022 59.148 281.021 59.148 281.021 59.148C281.021 59.148 281.021 59.148 281.02 59.148C281.02 59.148 281.02 59.148 281.02 59.148C281.02 59.148 281.019 59.148 281.019 59.148C281.019 59.148 281.019 59.148 281.018 59.148C281.018 59.148 281.018 59.148 281.018 59.148C281.017 59.148 281.017 59.148 281.017 59.148C281.017 59.148 281.016 59.148 281.016 59.148C281.016 59.148 281.016 59.148 281.015 59.148C281.015 59.148 281.015 59.148 281.015 59.148C281.015 59.148 281.014 59.148 281.014 59.148C281.014 59.148 281.014 59.148 281.013 59.148C281.013 59.148 281.013 59.148 281.013 59.148C281.012 59.148 281.012 59.148 281.012 59.148C281.012 59.148 281.011 59.148 281.011 59.148C281.011 59.148 281.011 59.148 281.011 59.148C281.01 59.148 281.01 59.148 281.01 59.148C281.01 59.148 281.009 59.148 281.009 59.148C281.009 59.148 281.009 59.148 281.008 59.148C281.008 59.148 281.008 59.148 281.008 59.148C281.007 59.148 281.007 59.148 281.007 59.148C281.007 59.148 281.007 59.148 281.006 59.148C281.006 59.148 281.006 59.148 281.006 59.148C281.005 59.148 281.005 59.148 281.005 59.148C281.005 59.148 281.004 59.148 281.004 59.148C281.004 59.148 281.004 59.148 281.004 59.148C281.003 59.148 281.003 59.148 281.003 59.148C281.003 59.148 281.002 59.148 281.002 59.148C281.002 59.148 281.002 59.148 281.001 59.148C281.001 59.148 281.001 59.148 281.001 59.148C281 59.148 281 59.148 281 59.148C281 59.148 281 59.148 280.999 59.148C280.999 59.148 280.999 59.148 280.999 59.148C280.998 59.148 280.998 59.148 280.998 59.148C280.998 59.148 280.997 59.148 280.997 59.148C280.997 59.148 280.997 59.148 280.997 59.148C280.996 59.148 280.996 59.148 280.996 59.148C280.996 59.148 280.995 59.148 280.995 59.148C280.995 59.148 280.995 59.148 280.994 59.148C280.994 59.148 280.994 59.148 280.994 59.148C280.993 59.148 280.993 59.148 280.993 59.148C280.993 59.148 280.993 59.148 280.992 59.148C280.992 59.148 280.992 59.148 280.992 59.148C280.991 59.148 280.991 59.148 280.991 59.148C280.991 59.148 280.99 59.148 280.99 59.148C280.99 59.148 280.99 59.148 280.99 59.148C280.989 59.148 280.989 59.148 280.989 59.148C280.989 59.148 280.988 59.148 280.988 59.148C280.988 59.148 280.988 59.148 280.988 59.148C280.987 59.148 280.987 59.148 280.987 59.148C280.987 59.148 280.986 59.148 280.986 59.148C280.986 59.148 280.986 59.148 280.985 59.148C280.985 59.148 280.985 59.148 280.985 59.148C280.985 59.148 280.984 59.148 280.984 59.148C280.984 59.148 280.984 59.148 280.983 59.148C280.983 59.148 280.983 59.148 280.983 59.148C280.982 59.148 280.982 59.148 280.982 59.148C280.982 59.148 280.982 59.148 280.981 59.148C280.981 59.148 280.981 59.148 280.981 59.148C280.98 59.148 280.98 59.148 280.98 59.148C280.98 59.148 280.979 59.148 280.979 59.148C280.979 59.148 280.979 59.148 280.979 59.148C280.978 59.148 280.978 59.148 280.978 59.148C280.978 59.148 280.977 59.148 280.977 59.148C280.977 59.148 280.977 59.148 280.977 59.148C280.976 59.148 280.976 59.148 280.976 59.148C280.976 59.148 280.975 59.148 280.975 59.148C280.975 59.148 280.975 59.148 280.974 59.148C280.974 59.148 280.974 59.148 280.974 59.148C280.974 59.148 280.973 59.148 280.973 59.148C280.973 59.148 280.973 59.148 280.972 59.148C280.972 59.148 280.972 59.148 280.972 59.148C280.971 59.148 280.971 59.148 280.971 59.148C280.971 59.148 280.971 59.148 280.97 59.148C280.97 59.148 280.97 59.148 280.97 59.148C280.969 59.148 280.969 59.148 280.969 59.148C280.969 59.148 280.969 59.148 280.968 59.148C280.968 59.148 280.968 59.148 280.968 59.148C280.967 59.148 280.967 59.148 280.967 59.148C280.967 59.148 280.967 59.148 280.966 59.148C280.966 59.148 280.966 59.148 280.966 59.148C280.965 59.148 280.965 59.148 280.965 59.148C280.965 59.148 280.964 59.148 280.964 59.148C280.964 59.148 280.964 59.148 280.964 59.148C280.963 59.148 280.963 59.148 280.963 59.148C280.963 59.148 280.962 59.148 280.962 59.148C280.962 59.148 280.962 59.148 280.962 59.148C280.961 59.148 280.961 59.148 280.961 59.148C280.961 59.148 280.96 59.148 280.96 59.148C280.96 59.148 280.96 59.148 280.96 59.148C280.959 59.148 280.959 59.148 280.959 59.148C280.959 59.148 280.958 59.148 280.958 59.148C280.958 59.148 280.958 59.148 280.958 59.148C280.957 59.148 280.957 59.148 280.957 59.148C280.957 59.148 280.956 59.148 280.956 59.148C280.956 59.148 280.956 59.148 280.955 59.148C280.955 59.148 280.955 59.148 280.955 59.148C280.955 59.148 280.954 59.148 280.954 59.148C280.954 59.148 280.954 59.148 280.953 59.148C280.953 59.148 280.953 59.148 280.953 59.148C280.953 59.148 280.952 59.148 280.952 59.148C280.952 59.148 280.952 59.148 280.951 59.148C280.951 59.148 280.951 59.148 280.951 59.148C280.951 59.148 280.95 59.148 280.95 59.148C280.95 59.148 280.95 59.148 280.949 59.148C280.949 59.148 280.949 59.148 280.949 59.148C280.949 59.148 280.948 59.148 280.948 59.148C280.948 59.148 280.948 59.148 280.947 59.148C280.947 59.148 280.947 59.148 280.947 59.148C280.947 59.148 280.946 59.148 280.946 59.148C280.946 59.148 280.946 59.148 280.945 59.148C280.945 59.148 280.945 59.148 280.945 59.148C280.945 59.148 280.944 59.148 280.944 59.148C280.944 59.148 280.944 59.148 280.943 59.148C280.943 59.148 280.943 59.148 280.943 59.148C280.943 59.148 280.942 59.148 280.942 59.148C280.942 59.148 280.942 59.148 280.941 59.148C280.941 59.148 280.941 59.148 280.941 59.148C280.941 59.148 280.94 59.148 280.94 59.148C280.94 59.148 280.94 59.148 280.939 59.148C280.939 59.148 280.939 59.148 280.939 59.148C280.939 59.148 280.938 59.148 280.938 59.148C280.938 59.148 280.938 59.148 280.938 59.148C280.937 59.148 280.937 59.148 280.937 59.148C280.937 59.148 280.936 59.148 280.936 59.148C280.936 59.148 280.936 59.148 280.936 59.148C280.935 59.148 280.935 59.148 280.935 59.148C280.935 59.148 280.934 59.148 280.934 59.148C280.934 59.148 280.934 59.148 280.934 59.148C280.933 59.148 280.933 59.148 280.933 59.148C280.933 59.148 280.932 59.148 280.932 59.148V60.648V62.148C280.932 62.148 280.933 62.148 280.933 62.148C280.933 62.148 280.933 62.148 280.934 62.148C280.934 62.148 280.934 62.148 280.934 62.148C280.934 62.148 280.935 62.148 280.935 62.148C280.935 62.148 280.935 62.148 280.936 62.148C280.936 62.148 280.936 62.148 280.936 62.148C280.936 62.148 280.937 62.148 280.937 62.148C280.937 62.148 280.937 62.148 280.938 62.148C280.938 62.148 280.938 62.148 280.938 62.148C280.938 62.148 280.939 62.148 280.939 62.148C280.939 62.148 280.939 62.148 280.939 62.148C280.94 62.148 280.94 62.148 280.94 62.148C280.94 62.148 280.941 62.148 280.941 62.148C280.941 62.148 280.941 62.148 280.941 62.148C280.942 62.148 280.942 62.148 280.942 62.148C280.942 62.148 280.943 62.148 280.943 62.148C280.943 62.148 280.943 62.148 280.943 62.148C280.944 62.148 280.944 62.148 280.944 62.148C280.944 62.148 280.945 62.148 280.945 62.148C280.945 62.148 280.945 62.148 280.945 62.148C280.946 62.148 280.946 62.148 280.946 62.148C280.946 62.148 280.947 62.148 280.947 62.148C280.947 62.148 280.947 62.148 280.947 62.148C280.948 62.148 280.948 62.148 280.948 62.148C280.948 62.148 280.949 62.148 280.949 62.148C280.949 62.148 280.949 62.148 280.949 62.148C280.95 62.148 280.95 62.148 280.95 62.148C280.95 62.148 280.951 62.148 280.951 62.148C280.951 62.148 280.951 62.148 280.951 62.148C280.952 62.148 280.952 62.148 280.952 62.148C280.952 62.148 280.953 62.148 280.953 62.148C280.953 62.148 280.953 62.148 280.953 62.148C280.954 62.148 280.954 62.148 280.954 62.148C280.954 62.148 280.955 62.148 280.955 62.148C280.955 62.148 280.955 62.148 280.955 62.148C280.956 62.148 280.956 62.148 280.956 62.148C280.956 62.148 280.957 62.148 280.957 62.148C280.957 62.148 280.957 62.148 280.958 62.148C280.958 62.148 280.958 62.148 280.958 62.148C280.958 62.148 280.959 62.148 280.959 62.148C280.959 62.148 280.959 62.148 280.96 62.148C280.96 62.148 280.96 62.148 280.96 62.148C280.96 62.148 280.961 62.148 280.961 62.148C280.961 62.148 280.961 62.148 280.962 62.148C280.962 62.148 280.962 62.148 280.962 62.148C280.962 62.148 280.963 62.148 280.963 62.148C280.963 62.148 280.963 62.148 280.964 62.148C280.964 62.148 280.964 62.148 280.964 62.148C280.964 62.148 280.965 62.148 280.965 62.148C280.965 62.148 280.965 62.148 280.966 62.148C280.966 62.148 280.966 62.148 280.966 62.148C280.967 62.148 280.967 62.148 280.967 62.148C280.967 62.148 280.967 62.148 280.968 62.148C280.968 62.148 280.968 62.148 280.968 62.148C280.969 62.148 280.969 62.148 280.969 62.148C280.969 62.148 280.969 62.148 280.97 62.148C280.97 62.148 280.97 62.148 280.97 62.148C280.971 62.148 280.971 62.148 280.971 62.148C280.971 62.148 280.971 62.148 280.972 62.148C280.972 62.148 280.972 62.148 280.972 62.148C280.973 62.148 280.973 62.148 280.973 62.148C280.973 62.148 280.974 62.148 280.974 62.148C280.974 62.148 280.974 62.148 280.974 62.148C280.975 62.148 280.975 62.148 280.975 62.148C280.975 62.148 280.976 62.148 280.976 62.148C280.976 62.148 280.976 62.148 280.977 62.148C280.977 62.148 280.977 62.148 280.977 62.148C280.977 62.148 280.978 62.148 280.978 62.148C280.978 62.148 280.978 62.148 280.979 62.148C280.979 62.148 280.979 62.148 280.979 62.148C280.979 62.148 280.98 62.148 280.98 62.148C280.98 62.148 280.98 62.148 280.981 62.148C280.981 62.148 280.981 62.148 280.981 62.148C280.982 62.148 280.982 62.148 280.982 62.148C280.982 62.148 280.982 62.148 280.983 62.148C280.983 62.148 280.983 62.148 280.983 62.148C280.984 62.148 280.984 62.148 280.984 62.148C280.984 62.148 280.985 62.148 280.985 62.148C280.985 62.148 280.985 62.148 280.985 62.148C280.986 62.148 280.986 62.148 280.986 62.148C280.986 62.148 280.987 62.148 280.987 62.148C280.987 62.148 280.987 62.148 280.988 62.148C280.988 62.148 280.988 62.148 280.988 62.148C280.988 62.148 280.989 62.148 280.989 62.148C280.989 62.148 280.989 62.148 280.99 62.148C280.99 62.148 280.99 62.148 280.99 62.148C280.99 62.148 280.991 62.148 280.991 62.148C280.991 62.148 280.991 62.148 280.992 62.148C280.992 62.148 280.992 62.148 280.992 62.148C280.993 62.148 280.993 62.148 280.993 62.148C280.993 62.148 280.993 62.148 280.994 62.148C280.994 62.148 280.994 62.148 280.994 62.148C280.995 62.148 280.995 62.148 280.995 62.148C280.995 62.148 280.996 62.148 280.996 62.148C280.996 62.148 280.996 62.148 280.997 62.148C280.997 62.148 280.997 62.148 280.997 62.148C280.997 62.148 280.998 62.148 280.998 62.148C280.998 62.148 280.998 62.148 280.999 62.148C280.999 62.148 280.999 62.148 280.999 62.148C281 62.148 281 62.148 281 62.148C281 62.148 281 62.148 281.001 62.148C281.001 62.148 281.001 62.148 281.001 62.148C281.002 62.148 281.002 62.148 281.002 62.148C281.002 62.148 281.003 62.148 281.003 62.148C281.003 62.148 281.003 62.148 281.004 62.148C281.004 62.148 281.004 62.148 281.004 62.148C281.004 62.148 281.005 62.148 281.005 62.148C281.005 62.148 281.005 62.148 281.006 62.148C281.006 62.148 281.006 62.148 281.006 62.148C281.007 62.148 281.007 62.148 281.007 62.148C281.007 62.148 281.007 62.148 281.008 62.148C281.008 62.148 281.008 62.148 281.008 62.148C281.009 62.148 281.009 62.148 281.009 62.148C281.009 62.148 281.01 62.148 281.01 62.148C281.01 62.148 281.01 62.148 281.011 62.148C281.011 62.148 281.011 62.148 281.011 62.148C281.011 62.148 281.012 62.148 281.012 62.148C281.012 62.148 281.012 62.148 281.013 62.148C281.013 62.148 281.013 62.148 281.013 62.148C281.014 62.148 281.014 62.148 281.014 62.148C281.014 62.148 281.015 62.148 281.015 62.148C281.015 62.148 281.015 62.148 281.015 62.148C281.016 62.148 281.016 62.148 281.016 62.148C281.016 62.148 281.017 62.148 281.017 62.148C281.017 62.148 281.017 62.148 281.018 62.148C281.018 62.148 281.018 62.148 281.018 62.148C281.019 62.148 281.019 62.148 281.019 62.148C281.019 62.148 281.02 62.148 281.02 62.148C281.02 62.148 281.02 62.148 281.02 62.148C281.021 62.148 281.021 62.148 281.021 62.148C281.021 62.148 281.022 62.148 281.022 62.148C281.022 62.148 281.022 62.148 281.023 62.148C281.023 62.148 281.023 62.148 281.023 62.148C281.024 62.148 281.024 62.148 281.024 62.148C281.024 62.148 281.025 62.148 281.025 62.148C281.025 62.148 281.025 62.148 281.025 62.148C281.026 62.148 281.026 62.148 281.026 62.148C281.026 62.148 281.027 62.148 281.027 62.148C281.027 62.148 281.027 62.148 281.028 62.148C281.028 62.148 281.028 62.148 281.028 62.148C281.029 62.148 281.029 62.148 281.029 62.148C281.029 62.148 281.03 62.148 281.03 62.148C281.03 62.148 281.03 62.148 281.03 62.148C281.031 62.148 281.031 62.148 281.031 62.148C281.031 62.148 281.032 62.148 281.032 62.148C281.032 62.148 281.032 62.148 281.033 62.148C281.033 62.148 281.033 62.148 281.033 62.148C281.034 62.148 281.034 62.148 281.034 62.148C281.034 62.148 281.035 62.148 281.035 62.148C281.035 62.148 281.035 62.148 281.035 62.148C281.036 62.148 281.036 62.148 281.036 62.148C281.036 62.148 281.037 62.148 281.037 62.148C281.037 62.148 281.037 62.148 281.038 62.148C281.038 62.148 281.038 62.148 281.038 62.148C281.039 62.148 281.039 62.148 281.039 62.148C281.039 62.148 281.04 62.148 281.04 62.148C281.04 62.148 281.04 62.148 281.041 62.148C281.041 62.148 281.041 62.148 281.041 62.148C281.042 62.148 281.042 62.148 281.042 62.148C281.042 62.148 281.042 62.148 281.043 62.148C281.043 62.148 281.043 62.148 281.043 62.148C281.044 62.148 281.044 62.148 281.044 62.148C281.044 62.148 281.045 62.148 281.045 62.148C281.045 62.148 281.045 62.148 281.046 62.148C281.046 62.148 281.046 62.148 281.046 62.148C281.047 62.148 281.047 62.148 281.047 62.148C281.047 62.148 281.048 62.148 281.048 62.148C281.048 62.148 281.048 62.148 281.049 62.148C281.049 62.148 281.049 62.148 281.049 62.148C281.049 62.148 281.05 62.148 281.05 62.148C281.05 62.148 281.05 62.148 281.051 62.148C281.051 62.148 281.051 62.148 281.051 62.148C281.052 62.148 281.052 62.148 281.052 62.148C281.052 62.148 281.053 62.148 281.053 62.148C281.053 62.148 281.053 62.148 281.054 62.148C281.054 62.148 281.054 62.148 281.054 62.148C281.055 62.148 281.055 62.148 281.055 62.148C281.055 62.148 281.056 62.148 281.056 62.148C281.056 62.148 281.056 62.148 281.057 62.148C281.057 62.148 281.057 62.148 281.057 62.148C281.058 62.148 281.058 62.148 281.058 62.148C281.058 62.148 281.059 62.148 281.059 62.148C281.059 62.148 281.059 62.148 281.059 62.148C281.06 62.148 281.06 62.148 281.06 62.148C281.06 62.148 281.061 62.148 281.061 62.148C281.061 62.148 281.061 62.148 281.062 62.148C281.062 62.148 281.062 62.148 281.062 62.148C281.063 62.148 281.063 62.148 281.063 62.148C281.063 62.148 281.064 62.148 281.064 62.148C281.064 62.148 281.064 62.148 281.065 62.148C281.065 62.148 281.065 62.148 281.065 62.148C281.066 62.148 281.066 62.148 281.066 62.148C281.066 62.148 281.067 62.148 281.067 62.148C281.067 62.148 281.067 62.148 281.068 62.148C281.068 62.148 281.068 62.148 281.068 62.148C281.069 62.148 281.069 62.148 281.069 62.148C281.069 62.148 281.07 62.148 281.07 62.148C281.07 62.148 281.07 62.148 281.071 62.148C281.071 62.148 281.071 62.148 281.071 62.148C281.072 62.148 281.072 62.148 281.072 62.148C281.072 62.148 281.073 62.148 281.073 62.148C281.073 62.148 281.073 62.148 281.074 62.148C281.074 62.148 281.074 62.148 281.074 62.148C281.075 62.148 281.075 62.148 281.075 62.148C281.075 62.148 281.076 62.148 281.076 62.148C281.076 62.148 281.076 62.148 281.077 62.148C281.077 62.148 281.077 62.148 281.077 62.148C281.077 62.148 281.078 62.148 281.078 62.148C281.078 62.148 281.078 62.148 281.079 62.148C281.079 62.148 281.079 62.148 281.079 62.148C281.08 62.148 281.08 62.148 281.08 62.148C281.08 62.148 281.081 62.148 281.081 62.148C281.081 62.148 281.081 62.148 281.082 62.148C281.082 62.148 281.082 62.148 281.082 62.148C281.083 62.148 281.083 62.148 281.083 62.148C281.083 62.148 281.084 62.148 281.084 62.148C281.084 62.148 281.084 62.148 281.085 62.148C281.085 62.148 281.085 62.148 281.085 62.148C281.086 62.148 281.086 62.148 281.086 62.148C281.086 62.148 281.087 62.148 281.087 62.148C281.087 62.148 281.087 62.148 281.088 62.148C281.088 62.148 281.088 62.148 281.088 62.148C281.089 62.148 281.089 62.148 281.089 62.148C281.089 62.148 281.09 62.148 281.09 62.148C281.09 62.148 281.09 62.148 281.091 62.148C281.091 62.148 281.091 62.148 281.091 62.148C281.092 62.148 281.092 62.148 281.092 62.148C281.092 62.148 281.093 62.148 281.093 62.148C281.093 62.148 281.093 62.148 281.094 62.148C281.094 62.148 281.094 62.148 281.094 62.148C281.095 62.148 281.095 62.148 281.095 62.148C281.095 62.148 281.096 62.148 281.096 62.148C281.096 62.148 281.096 62.148 281.097 62.148C281.097 62.148 281.097 62.148 281.098 62.148C281.098 62.148 281.098 62.148 281.098 62.148C281.099 62.148 281.099 62.148 281.099 62.148C281.099 62.148 281.1 62.148 281.1 62.148C281.1 62.148 281.1 62.148 281.101 62.148C281.101 62.148 281.101 62.148 281.101 62.148C281.102 62.148 281.102 62.148 281.102 62.148C281.102 62.148 281.103 62.148 281.103 62.148C281.103 62.148 281.103 62.148 281.104 62.148C281.104 62.148 281.104 62.148 281.104 62.148C281.105 62.148 281.105 62.148 281.105 62.148C281.105 62.148 281.106 62.148 281.106 62.148C281.106 62.148 281.106 62.148 281.107 62.148C281.107 62.148 281.107 62.148 281.107 62.148C281.108 62.148 281.108 62.148 281.108 62.148C281.108 62.148 281.109 62.148 281.109 62.148C281.109 62.148 281.109 62.148 281.11 62.148C281.11 62.148 281.11 62.148 281.11 62.148C281.111 62.148 281.111 62.148 281.111 62.148C281.111 62.148 281.112 62.148 281.112 62.148C281.112 62.148 281.112 62.148 281.113 62.148C281.113 62.148 281.113 62.148 281.113 62.148C281.114 62.148 281.114 62.148 281.114 62.148C281.115 62.148 281.115 62.148 281.115 62.148C281.115 62.148 281.116 62.148 281.116 62.148C281.116 62.148 281.116 62.148 281.117 62.148C281.117 62.148 281.117 62.148 281.117 62.148C281.118 62.148 281.118 62.148 281.118 62.148C281.118 62.148 281.119 62.148 281.119 62.148C281.119 62.148 281.119 62.148 281.12 62.148C281.12 62.148 281.12 62.148 281.12 62.148C281.121 62.148 281.121 62.148 281.121 62.148C281.121 62.148 281.122 62.148 281.122 62.148C281.122 62.148 281.122 62.148 281.123 62.148C281.123 62.148 281.123 62.148 281.123 62.148C281.124 62.148 281.124 62.148 281.124 62.148C281.124 62.148 281.125 62.148 281.125 62.148C281.125 62.148 281.126 62.148 281.126 62.148C281.126 62.148 281.126 62.148 281.127 62.148C281.127 62.148 281.127 62.148 281.127 62.148C281.128 62.148 281.128 62.148 281.128 62.148C281.128 62.148 281.129 62.148 281.129 62.148C281.129 62.148 281.129 62.148 281.13 62.148C281.13 62.148 281.13 62.148 281.13 62.148C281.131 62.148 281.131 62.148 281.131 62.148C281.131 62.148 281.132 62.148 281.132 62.148C281.132 62.148 281.132 62.148 281.133 62.148C281.133 62.148 281.133 62.148 281.134 62.148C281.134 62.148 281.134 62.148 281.134 62.148C281.135 62.148 281.135 62.148 281.135 62.148C281.135 62.148 281.136 62.148 281.136 62.148C281.136 62.148 281.136 62.148 281.137 62.148C281.137 62.148 281.137 62.148 281.137 62.148C281.138 62.148 281.138 62.148 281.138 62.148C281.138 62.148 281.139 62.148 281.139 62.148C281.139 62.148 281.139 62.148 281.14 62.148C281.14 62.148 281.14 62.148 281.141 62.148C281.141 62.148 281.141 62.148 281.141 62.148C281.142 62.148 281.142 62.148 281.142 62.148C281.142 62.148 281.143 62.148 281.143 62.148C281.143 62.148 281.143 62.148 281.144 62.148C281.144 62.148 281.144 62.148 281.144 62.148C281.145 62.148 281.145 62.148 281.145 62.148C281.145 62.148 281.146 62.148 281.146 62.148C281.146 62.148 281.147 62.148 281.147 62.148C281.147 62.148 281.147 62.148 281.148 62.148C281.148 62.148 281.148 62.148 281.148 62.148C281.149 62.148 281.149 62.148 281.149 62.148C281.149 62.148 281.15 62.148 281.15 62.148C281.15 62.148 281.15 62.148 281.151 62.148C281.151 62.148 281.151 62.148 281.151 62.148C281.152 62.148 281.152 62.148 281.152 62.148C281.153 62.148 281.153 62.148 281.153 62.148C281.153 62.148 281.154 62.148 281.154 62.148C281.154 62.148 281.154 62.148 281.155 62.148C281.155 62.148 281.155 62.148 281.155 62.148C281.156 62.148 281.156 62.148 281.156 62.148C281.156 62.148 281.157 62.148 281.157 62.148C281.157 62.148 281.158 62.148 281.158 62.148C281.158 62.148 281.158 62.148 281.159 62.148C281.159 62.148 281.159 62.148 281.159 62.148C281.16 62.148 281.16 62.148 281.16 62.148C281.16 62.148 281.161 62.148 281.161 62.148C281.161 62.148 281.161 62.148 281.162 62.148C281.162 62.148 281.162 62.148 281.163 62.148C281.163 62.148 281.163 62.148 281.163 62.148C281.164 62.148 281.164 62.148 281.164 62.148C281.164 62.148 281.165 62.148 281.165 62.148C281.165 62.148 281.165 62.148 281.166 62.148C281.166 62.148 281.166 62.148 281.167 62.148C281.167 62.148 281.167 62.148 281.167 62.148C281.168 62.148 281.168 62.148 281.168 62.148C281.168 62.148 281.169 62.148 281.169 62.148C281.169 62.148 281.169 62.148 281.17 62.148C281.17 62.148 281.17 62.148 281.17 62.148C281.171 62.148 281.171 62.148 281.171 62.148C281.172 62.148 281.172 62.148 281.172 62.148C281.172 62.148 281.173 62.148 281.173 62.148C281.173 62.148 281.173 62.148 281.174 62.148C281.174 62.148 281.174 62.148 281.174 62.148C281.175 62.148 281.175 62.148 281.175 62.148C281.176 62.148 281.176 62.148 281.176 62.148C281.176 62.148 281.177 62.148 281.177 62.148C281.177 62.148 281.177 62.148 281.178 62.148C281.178 62.148 281.178 62.148 281.178 62.148C281.179 62.148 281.179 62.148 281.179 62.148C281.18 62.148 281.18 62.148 281.18 62.148C281.18 62.148 281.181 62.148 281.181 62.148C281.181 62.148 281.181 62.148 281.182 62.148C281.182 62.148 281.182 62.148 281.182 62.148C281.183 62.148 281.183 62.148 281.183 62.148C281.184 62.148 281.184 62.148 281.184 62.148C281.184 62.148 281.185 62.148 281.185 62.148C281.185 62.148 281.185 62.148 281.186 62.148C281.186 62.148 281.186 62.148 281.186 62.148C281.187 62.148 281.187 62.148 281.187 62.148C281.188 62.148 281.188 62.148 281.188 62.148C281.188 62.148 281.189 62.148 281.189 62.148C281.189 62.148 281.189 62.148 281.19 62.148C281.19 62.148 281.19 62.148 281.191 62.148C281.191 62.148 281.191 62.148 281.191 62.148C281.192 62.148 281.192 62.148 281.192 62.148C281.192 62.148 281.193 62.148 281.193 62.148C281.193 62.148 281.193 62.148 281.194 62.148C281.194 62.148 281.194 62.148 281.195 62.148C281.195 62.148 281.195 62.148 281.195 62.148C281.196 62.148 281.196 62.148 281.196 62.148C281.196 62.148 281.197 62.148 281.197 62.148C281.197 62.148 281.198 62.148 281.198 62.148C281.198 62.148 281.198 62.148 281.199 62.148C281.199 62.148 281.199 62.148 281.199 62.148C281.2 62.148 281.2 62.148 281.2 62.148C281.201 62.148 281.201 62.148 281.201 62.148C281.201 62.148 281.202 62.148 281.202 62.148C281.202 62.148 281.202 62.148 281.203 62.148C281.203 62.148 281.203 62.148 281.203 62.148C281.204 62.148 281.204 62.148 281.204 62.148C281.205 62.148 281.205 62.148 281.205 62.148C281.205 62.148 281.206 62.148 281.206 62.148C281.206 62.148 281.206 62.148 281.207 62.148C281.207 62.148 281.207 62.148 281.208 62.148C281.208 62.148 281.208 62.148 281.208 62.148C281.209 62.148 281.209 62.148 281.209 62.148C281.209 62.148 281.21 62.148 281.21 62.148C281.21 62.148 281.211 62.148 281.211 62.148C281.211 62.148 281.211 62.148 281.212 62.148C281.212 62.148 281.212 62.148 281.212 62.148C281.213 62.148 281.213 62.148 281.213 62.148C281.214 62.148 281.214 62.148 281.214 62.148C281.214 62.148 281.215 62.148 281.215 62.148C281.215 62.148 281.215 62.148 281.216 62.148C281.216 62.148 281.216 62.148 281.217 62.148C281.217 62.148 281.217 62.148 281.217 62.148C281.218 62.148 281.218 62.148 281.218 62.148C281.218 62.148 281.219 62.148 281.219 62.148C281.219 62.148 281.22 62.148 281.22 62.148C281.22 62.148 281.22 62.148 281.221 62.148C281.221 62.148 281.221 62.148 281.221 62.148C281.222 62.148 281.222 62.148 281.222 62.148C281.223 62.148 281.223 62.148 281.223 62.148C281.223 62.148 281.224 62.148 281.224 62.148C281.224 62.148 281.225 62.148 281.225 62.148C281.225 62.148 281.225 62.148 281.226 62.148C281.226 62.148 281.226 62.148 281.226 62.148C281.227 62.148 281.227 62.148 281.227 62.148C281.228 62.148 281.228 62.148 281.228 62.148C281.228 62.148 281.229 62.148 281.229 62.148C281.229 62.148 281.229 62.148 281.23 62.148C281.23 62.148 281.23 62.148 281.231 62.148C281.231 62.148 281.231 62.148 281.231 62.148C281.232 62.148 281.232 62.148 281.232 62.148C281.233 62.148 281.233 62.148 281.233 62.148C281.233 62.148 281.234 62.148 281.234 62.148C281.234 62.148 281.234 62.148 281.235 62.148C281.235 62.148 281.235 62.148 281.236 62.148C281.236 62.148 281.236 62.148 281.236 62.148C281.237 62.148 281.237 62.148 281.237 62.148C281.238 62.148 281.238 62.148 281.238 62.148C281.238 62.148 281.239 62.148 281.239 62.148C281.239 62.148 281.239 62.148 281.24 62.148C281.24 62.148 281.24 62.148 281.241 62.148C281.241 62.148 281.241 62.148 281.241 62.148C281.242 62.148 281.242 62.148 281.242 62.148C281.242 62.148 281.243 62.148 281.243 62.148C281.243 62.148 281.244 62.148 281.244 62.148C281.244 62.148 281.244 62.148 281.245 62.148C281.245 62.148 281.245 62.148 281.246 62.148C281.246 62.148 281.246 62.148 281.246 62.148C281.247 62.148 281.247 62.148 281.247 62.148C281.248 62.148 281.248 62.148 281.248 62.148C281.248 62.148 281.249 62.148 281.249 62.148C281.249 62.148 281.249 62.148 281.25 62.148C281.25 62.148 281.25 62.148 281.251 62.148C281.251 62.148 281.251 62.148 281.251 62.148C281.252 62.148 281.252 62.148 281.252 62.148C281.253 62.148 281.253 62.148 281.253 62.148C281.253 62.148 281.254 62.148 281.254 62.148C281.254 62.148 281.255 62.148 281.255 62.148C281.255 62.148 281.255 62.148 281.256 62.148C281.256 62.148 281.256 62.148 281.256 62.148C281.257 62.148 281.257 62.148 281.257 62.148C281.258 62.148 281.258 62.148 281.258 62.148C281.258 62.148 281.259 62.148 281.259 62.148C281.259 62.148 281.26 62.148 281.26 62.148C281.26 62.148 281.26 62.148 281.261 62.148C281.261 62.148 281.261 62.148 281.262 62.148C281.262 62.148 281.262 62.148 281.262 62.148C281.263 62.148 281.263 62.148 281.263 62.148C281.263 62.148 281.264 62.148 281.264 62.148C281.264 62.148 281.265 62.148 281.265 62.148C281.265 62.148 281.265 62.148 281.266 62.148C281.266 62.148 281.266 62.148 281.267 62.148C281.267 62.148 281.267 62.148 281.267 62.148C281.268 62.148 281.268 62.148 281.268 62.148C281.269 62.148 281.269 62.148 281.269 62.148C281.269 62.148 281.27 62.148 281.27 62.148C281.27 62.148 281.271 62.148 281.271 62.148C281.271 62.148 281.271 62.148 281.272 62.148C281.272 62.148 281.272 62.148 281.273 62.148C281.273 62.148 281.273 62.148 281.273 62.148C281.274 62.148 281.274 62.148 281.274 62.148C281.275 62.148 281.275 62.148 281.275 62.148C281.275 62.148 281.276 62.148 281.276 62.148C281.276 62.148 281.276 62.148 281.277 62.148C281.277 62.148 281.277 62.148 281.278 62.148C281.278 62.148 281.278 62.148 281.278 62.148C281.279 62.148 281.279 62.148 281.279 62.148C281.28 62.148 281.28 62.148 281.28 62.148C281.28 62.148 281.281 62.148 281.281 62.148C281.281 62.148 281.282 62.148 281.282 62.148C281.282 62.148 281.282 62.148 281.283 62.148C281.283 62.148 281.283 62.148 281.284 62.148C281.284 62.148 281.284 62.148 281.284 62.148C281.285 62.148 281.285 62.148 281.285 62.148C281.286 62.148 281.286 62.148 281.286 62.148C281.286 62.148 281.287 62.148 281.287 62.148C281.287 62.148 281.288 62.148 281.288 62.148C281.288 62.148 281.288 62.148 281.289 62.148C281.289 62.148 281.289 62.148 281.29 62.148C281.29 62.148 281.29 62.148 281.29 62.148C281.291 62.148 281.291 62.148 281.291 62.148C281.292 62.148 281.292 62.148 281.292 62.148C281.292 62.148 281.293 62.148 281.293 62.148C281.293 62.148 281.294 62.148 281.294 62.148C281.294 62.148 281.294 62.148 281.295 62.148C281.295 62.148 281.295 62.148 281.296 62.148C281.296 62.148 281.296 62.148 281.296 62.148C281.297 62.148 281.297 62.148 281.297 62.148C281.298 62.148 281.298 62.148 281.298 62.148C281.298 62.148 281.299 62.148 281.299 62.148C281.299 62.148 281.3 62.148 281.3 62.148C281.3 62.148 281.3 62.148 281.301 62.148C281.301 62.148 281.301 62.148 281.302 62.148C281.302 62.148 281.302 62.148 281.303 62.148C281.303 62.148 281.303 62.148 281.303 62.148C281.304 62.148 281.304 62.148 281.304 62.148C281.305 62.148 281.305 62.148 281.305 62.148C281.305 62.148 281.306 62.148 281.306 62.148C281.306 62.148 281.307 62.148 281.307 62.148C281.307 62.148 281.307 62.148 281.308 62.148C281.308 62.148 281.308 62.148 281.309 62.148C281.309 62.148 281.309 62.148 281.309 62.148C281.31 62.148 281.31 62.148 281.31 62.148C281.311 62.148 281.311 62.148 281.311 62.148C281.311 62.148 281.312 62.148 281.312 62.148C281.312 62.148 281.313 62.148 281.313 62.148C281.313 62.148 281.313 62.148 281.314 62.148C281.314 62.148 281.314 62.148 281.315 62.148C281.315 62.148 281.315 62.148 281.316 62.148C281.316 62.148 281.316 62.148 281.316 62.148C281.317 62.148 281.317 62.148 281.317 62.148C281.318 62.148 281.318 62.148 281.318 62.148C281.318 62.148 281.319 62.148 281.319 62.148C281.319 62.148 281.32 62.148 281.32 62.148C281.32 62.148 281.32 62.148 281.321 62.148C281.321 62.148 281.321 62.148 281.322 62.148C281.322 62.148 281.322 62.148 281.322 62.148C281.323 62.148 281.323 62.148 281.323 62.148C281.324 62.148 281.324 62.148 281.324 62.148V60.648ZM280.932 60.648L281.407 59.225C281.295 59.1876 281.183 59.1503 281.071 59.113L280.596 60.536L280.122 61.959C280.234 61.9964 280.346 62.0337 280.458 62.071L280.932 60.648ZM280.596 60.536L281.071 59.113C280.092 58.7869 279.029 58.5273 277.883 58.3298L277.628 59.808L277.373 61.2862C278.393 61.462 279.308 61.6877 280.122 61.959L280.596 60.536ZM277.628 59.808L277.892 58.3314C276.747 58.1269 275.519 58.028 274.212 58.028V59.528V61.028C275.37 61.028 276.419 61.1157 277.365 61.2846L277.628 59.808ZM274.212 59.528V58.028C272.008 58.028 270.085 58.4237 268.62 59.3999L269.452 60.648L270.284 61.8961C271.06 61.379 272.31 61.028 274.212 61.028V59.528ZM269.452 60.648L268.62 59.3999C267.18 60.3603 266.272 61.7204 266.272 63.448H267.772H269.272C269.272 62.9356 269.485 62.429 270.284 61.8961L269.452 60.648ZM267.772 63.448H266.272C266.272 64.902 266.9 66.1253 268.116 66.9361L268.948 65.688L269.78 64.4399C269.428 64.2054 269.272 63.9353 269.272 63.448H267.772ZM268.948 65.688L268.143 66.9535C269.131 67.5822 270.33 68.0634 271.7 68.4261L272.084 66.976L272.468 65.5259C271.299 65.2166 270.408 64.8392 269.754 64.4225L268.948 65.688ZM272.084 66.976L271.75 68.4383C273.053 68.736 274.411 69.0524 275.827 69.3876L276.172 67.928L276.518 66.4684C275.096 66.1316 273.729 65.8133 272.418 65.5137L272.084 66.976ZM276.172 67.928L275.835 69.3896C277.182 69.7003 278.432 70.1467 279.589 70.7256L280.26 69.384L280.931 68.0424C279.55 67.3519 278.075 66.8277 276.51 66.4664L276.172 67.928ZM280.26 69.384L279.637 70.7482C280.726 71.2461 281.561 71.9266 282.181 72.7838L283.396 71.904L284.611 71.0242C283.664 69.7161 282.408 68.7165 280.884 68.0198L280.26 69.384ZM283.396 71.904L282.201 72.8106C282.766 73.5552 283.128 74.6577 283.128 76.272H284.628H286.128C286.128 74.2276 285.669 72.4181 284.591 70.9974L283.396 71.904ZM284.628 76.272H283.128C283.128 78.0868 282.423 79.6523 280.882 81.0359L281.884 82.152L282.886 83.2681C285.004 81.3664 286.128 79.0118 286.128 76.272H284.628ZM281.884 82.152L280.883 81.0347C279.474 82.297 277.211 83.06 273.82 83.06V84.56V86.06C277.597 86.06 280.71 85.2177 282.885 83.2693L281.884 82.152ZM295.559 80.696L294.483 81.7412L294.49 81.749L294.498 81.7567L295.559 80.696ZM293.15 62.552L294.535 63.1289L294.538 63.1208L293.15 62.552ZM297.518 57.008L298.393 58.227L297.518 57.008ZM312.415 56.896L311.572 58.1368L311.58 58.1423L311.588 58.1477L312.415 56.896ZM316.895 62.048L315.539 62.6901L315.543 62.6998L315.548 62.7094L316.895 62.048ZM317.734 70.784L316.674 69.7233L316.653 69.7445L316.632 69.7666L317.734 70.784ZM296.902 71.512V70.012H295.213L295.413 71.6898L296.902 71.512ZM299.758 77.56L298.723 78.6456L298.73 78.652L298.737 78.6583L299.758 77.56ZM310.958 79.352L311.333 80.8044L311.355 80.7988L311.377 80.7925L310.958 79.352ZM314.262 78.064L313.592 76.7224L314.262 78.064ZM316.839 78.456L317.852 77.3503L316.839 78.456ZM317.062 81.256L315.891 80.319L315.885 80.327L315.878 80.3351L317.062 81.256ZM316.055 82.096L315.336 80.7792L315.321 80.7874L315.306 80.7961L316.055 82.096ZM312.023 83.888L312.474 85.3184L312.486 85.3148L312.497 85.311L312.023 83.888ZM296.902 67.368L295.405 67.2816L295.313 68.868H296.902V67.368ZM313.423 67.368V68.868H315.012L314.92 67.2816L313.423 67.368ZM311.911 62.664L310.692 63.5395L310.701 63.5518L310.71 63.564L311.911 62.664ZM308.775 60.032L309.395 58.6664L308.775 60.032ZM301.495 60.032L300.874 58.6664L301.495 60.032ZM306.255 84.56V83.06C301.993 83.06 298.847 81.8635 296.619 79.6353L295.559 80.696L294.498 81.7567C297.422 84.6805 301.407 86.06 306.255 86.06V84.56ZM295.559 80.696L296.634 79.6508C294.44 77.3921 293.251 74.1519 293.251 69.72H291.751H290.251C290.251 74.6961 291.599 78.7732 294.483 81.7412L295.559 80.696ZM291.751 69.72H293.251C293.251 67.3701 293.681 65.1777 294.535 63.1289L293.15 62.552L291.766 61.9751C290.753 64.4063 290.251 66.9926 290.251 69.72H291.751ZM293.15 62.552L294.538 63.1208C295.366 61.1012 296.645 59.4797 298.393 58.227L297.518 57.008L296.644 55.789C294.434 57.3737 292.801 59.4481 291.763 61.9832L293.15 62.552ZM297.518 57.008L298.393 58.227C300.055 57.0354 302.264 56.38 305.135 56.38V54.88V53.38C301.808 53.38 298.94 54.1432 296.644 55.789L297.518 57.008ZM305.135 54.88V56.38C307.77 56.38 309.888 56.9933 311.572 58.1368L312.415 56.896L313.257 55.6552C310.984 54.1107 308.248 53.38 305.135 53.38V54.88ZM312.415 56.896L311.588 58.1477C313.34 59.3044 314.649 60.8117 315.539 62.6901L316.895 62.048L318.25 61.4059C317.124 59.0283 315.447 57.1009 313.241 55.6443L312.415 56.896ZM316.895 62.048L315.548 62.7094C316.487 64.6202 316.963 66.707 316.963 68.992H318.463H319.963C319.963 66.2743 319.393 63.7318 318.241 61.3866L316.895 62.048ZM318.463 68.992H316.963C316.963 69.3184 316.868 69.5297 316.674 69.7233L317.734 70.784L318.795 71.8447C319.572 71.0677 319.963 70.0843 319.963 68.992H318.463ZM317.734 70.784L316.632 69.7666C316.521 69.8868 316.337 70.012 315.887 70.012V71.512V73.012C317.004 73.012 318.052 72.6518 318.837 71.8014L317.734 70.784ZM315.887 71.512V70.012H296.902V71.512V73.012H315.887V71.512ZM296.902 71.512L295.413 71.6898C295.747 74.4876 296.832 76.8419 298.723 78.6456L299.758 77.56L300.794 76.4744C299.475 75.2168 298.655 73.539 298.392 71.3342L296.902 71.512ZM299.758 77.56L298.737 78.6583C300.71 80.4941 303.445 81.3 306.702 81.3V79.8V78.3C303.912 78.3 302.017 77.6126 300.78 76.4617L299.758 77.56ZM306.702 79.8V81.3C308.462 81.3 310.015 81.1446 311.333 80.8044L310.958 79.352L310.584 77.8996C309.587 78.1568 308.303 78.3 306.702 78.3V79.8ZM310.958 79.352L311.377 80.7925C312.618 80.432 313.804 79.9701 314.933 79.4056L314.262 78.064L313.592 76.7224C312.63 77.2033 311.613 77.6 310.54 77.9115L310.958 79.352ZM314.262 78.064L314.933 79.4056C315 79.3722 315.102 79.34 315.271 79.34V77.84V76.34C314.692 76.34 314.122 76.4571 313.592 76.7224L314.262 78.064ZM315.271 77.84V79.34C315.485 79.34 315.648 79.3998 315.825 79.5617L316.839 78.456L317.852 77.3503C317.133 76.6909 316.25 76.34 315.271 76.34V77.84ZM316.839 78.456L315.825 79.5617C315.948 79.6744 316.01 79.7887 316.01 80.024H317.51H319.01C319.01 78.9899 318.625 78.059 317.852 77.3503L316.839 78.456ZM317.51 80.024H316.01C316.01 80.1076 315.992 80.1924 315.891 80.319L317.062 81.256L318.234 82.193C318.73 81.5729 319.01 80.8364 319.01 80.024H317.51ZM317.062 81.256L315.878 80.3351C315.756 80.4931 315.584 80.6439 315.336 80.7792L316.055 82.096L316.773 83.4128C317.346 83.1001 317.847 82.6909 318.247 82.1769L317.062 81.256ZM316.055 82.096L315.306 80.7961C314.168 81.4515 312.916 82.0089 311.548 82.465L312.023 83.888L312.497 85.311C314.041 84.7964 315.477 84.1592 316.803 83.3959L316.055 82.096ZM312.023 83.888L311.571 82.4576C310.361 82.8397 308.612 83.06 306.255 83.06V84.56V86.06C308.751 86.06 310.847 85.8323 312.474 85.3184L312.023 83.888ZM296.902 67.368V68.868H313.423V67.368V65.868H296.902V67.368ZM313.423 67.368L314.92 67.2816C314.796 65.1336 314.23 63.2565 313.111 61.764L311.911 62.664L310.71 63.564C311.383 64.4609 311.825 65.7197 311.925 67.4544L313.423 67.368ZM311.911 62.664L313.129 61.7885C312.131 60.4003 310.886 59.3442 309.395 58.6664L308.775 60.032L308.154 61.3975C309.127 61.8398 309.973 62.5384 310.692 63.5395L311.911 62.664ZM308.775 60.032L309.395 58.6664C307.994 58.0296 306.57 57.692 305.135 57.692V59.192V60.692C306.088 60.692 307.091 60.9144 308.154 61.3975L308.775 60.032ZM305.135 59.192V57.692C303.699 57.692 302.275 58.0296 300.874 58.6664L301.495 60.032L302.115 61.3975C303.178 60.9144 304.181 60.692 305.135 60.692V59.192ZM301.495 60.032L300.874 58.6664C299.383 59.3442 298.138 60.4003 297.14 61.7885L298.359 62.664L299.577 63.5395C300.296 62.5384 301.142 61.8398 302.115 61.3975L301.495 60.032ZM298.359 62.664L297.14 61.7885C296.07 63.2777 295.528 65.1455 295.405 67.2816L296.902 67.368L298.4 67.4544C298.501 65.7078 298.93 64.4396 299.577 63.5395L298.359 62.664ZM329.277 80.696L328.201 81.7412L328.209 81.749L328.217 81.7567L329.277 80.696ZM326.869 62.552L328.254 63.1289L328.257 63.1208L326.869 62.552ZM331.237 57.008L332.111 58.227L331.237 57.008ZM346.133 56.896L345.29 58.1368L345.299 58.1423L345.307 58.1477L346.133 56.896ZM350.613 62.048L349.258 62.6901L349.262 62.6998L349.267 62.7094L350.613 62.048ZM351.453 70.784L350.393 69.7233L350.371 69.7445L350.351 69.7666L351.453 70.784ZM330.621 71.512V70.012H328.931L329.132 71.6898L330.621 71.512ZM333.477 77.56L332.442 78.6456L332.449 78.652L332.456 78.6583L333.477 77.56ZM344.677 79.352L345.052 80.8044L345.074 80.7988L345.095 80.7925L344.677 79.352ZM347.981 78.064L347.31 76.7224L347.981 78.064ZM350.557 78.456L351.571 77.3503L350.557 78.456ZM350.781 81.256L349.61 80.319L349.604 80.327L349.597 80.3351L350.781 81.256ZM349.773 82.096L349.055 80.7792L349.04 80.7874L349.025 80.7961L349.773 82.096ZM345.741 83.888L346.193 85.3184L346.204 85.3148L346.216 85.311L345.741 83.888ZM330.621 67.368L329.124 67.2816L329.032 68.868H330.621V67.368ZM347.141 67.368V68.868H348.73L348.639 67.2816L347.141 67.368ZM345.629 62.664L344.411 63.5395L344.42 63.5518L344.429 63.564L345.629 62.664ZM342.493 60.032L343.114 58.6664L342.493 60.032ZM335.213 60.032L334.593 58.6664L335.213 60.032ZM339.973 84.56V83.06C335.711 83.06 332.566 81.8635 330.338 79.6353L329.277 80.696L328.217 81.7567C331.14 84.6805 335.126 86.06 339.973 86.06V84.56ZM329.277 80.696L330.353 79.6508C328.159 77.3921 326.969 74.1519 326.969 69.72H325.469H323.969C323.969 74.6961 325.318 78.7732 328.201 81.7412L329.277 80.696ZM325.469 69.72H326.969C326.969 67.3701 327.4 65.1777 328.254 63.1289L326.869 62.552L325.485 61.9751C324.472 64.4063 323.969 66.9926 323.969 69.72H325.469ZM326.869 62.552L328.257 63.1208C329.085 61.1012 330.364 59.4797 332.111 58.227L331.237 57.008L330.363 55.789C328.153 57.3737 326.52 59.4481 325.481 61.9832L326.869 62.552ZM331.237 57.008L332.111 58.227C333.773 57.0354 335.982 56.38 338.853 56.38V54.88V53.38C335.527 53.38 332.659 54.1432 330.363 55.789L331.237 57.008ZM338.853 54.88V56.38C341.489 56.38 343.607 56.9933 345.29 58.1368L346.133 56.896L346.976 55.6552C344.702 54.1107 341.967 53.38 338.853 53.38V54.88ZM346.133 56.896L345.307 58.1477C347.058 59.3044 348.368 60.8117 349.258 62.6901L350.613 62.048L351.969 61.4059C350.843 59.0283 349.166 57.1009 346.96 55.6443L346.133 56.896ZM350.613 62.048L349.267 62.7094C350.206 64.6202 350.681 66.707 350.681 68.992H352.181H353.681C353.681 66.2743 353.112 63.7318 351.96 61.3866L350.613 62.048ZM352.181 68.992H350.681C350.681 69.3184 350.586 69.5297 350.393 69.7233L351.453 70.784L352.514 71.8447C353.291 71.0677 353.681 70.0843 353.681 68.992H352.181ZM351.453 70.784L350.351 69.7666C350.24 69.8868 350.056 70.012 349.605 70.012V71.512V73.012C350.723 73.012 351.77 72.6518 352.555 71.8014L351.453 70.784ZM349.605 71.512V70.012H330.621V71.512V73.012H349.605V71.512ZM330.621 71.512L329.132 71.6898C329.466 74.4876 330.55 76.8419 332.442 78.6456L333.477 77.56L334.512 76.4744C333.193 75.2168 332.374 73.539 332.111 71.3342L330.621 71.512ZM333.477 77.56L332.456 78.6583C334.429 80.4941 337.163 81.3 340.421 81.3V79.8V78.3C337.631 78.3 335.736 77.6126 334.499 76.4617L333.477 77.56ZM340.421 79.8V81.3C342.181 81.3 343.734 81.1446 345.052 80.8044L344.677 79.352L344.302 77.8996C343.306 78.1568 342.022 78.3 340.421 78.3V79.8ZM344.677 79.352L345.095 80.7925C346.337 80.432 347.523 79.9701 348.652 79.4056L347.981 78.064L347.31 76.7224C346.349 77.2033 345.332 77.6 344.259 77.9115L344.677 79.352ZM347.981 78.064L348.652 79.4056C348.719 79.3722 348.821 79.34 348.989 79.34V77.84V76.34C348.411 76.34 347.841 76.4571 347.31 76.7224L347.981 78.064ZM348.989 77.84V79.34C349.204 79.34 349.367 79.3998 349.544 79.5617L350.557 78.456L351.571 77.3503C350.852 76.6909 349.969 76.34 348.989 76.34V77.84ZM350.557 78.456L349.544 79.5617C349.667 79.6744 349.729 79.7887 349.729 80.024H351.229H352.729C352.729 78.9899 352.344 78.059 351.571 77.3503L350.557 78.456ZM351.229 80.024H349.729C349.729 80.1076 349.711 80.1924 349.61 80.319L350.781 81.256L351.953 82.193C352.449 81.5729 352.729 80.8364 352.729 80.024H351.229ZM350.781 81.256L349.597 80.3351C349.474 80.4931 349.303 80.6439 349.055 80.7792L349.773 82.096L350.492 83.4128C351.065 83.1001 351.566 82.6909 351.965 82.1769L350.781 81.256ZM349.773 82.096L349.025 80.7961C347.886 81.4515 346.635 82.0089 345.267 82.465L345.741 83.888L346.216 85.311C347.759 84.7964 349.196 84.1592 350.522 83.3959L349.773 82.096ZM345.741 83.888L345.29 82.4576C344.08 82.8397 342.33 83.06 339.973 83.06V84.56V86.06C342.469 86.06 344.565 85.8323 346.193 85.3184L345.741 83.888ZM330.621 67.368V68.868H347.141V67.368V65.868H330.621V67.368ZM347.141 67.368L348.639 67.2816C348.515 65.1336 347.949 63.2565 346.829 61.764L345.629 62.664L344.429 63.564C345.102 64.4609 345.544 65.7197 345.644 67.4544L347.141 67.368ZM345.629 62.664L346.847 61.7885C345.849 60.4003 344.605 59.3442 343.114 58.6664L342.493 60.032L341.873 61.3975C342.846 61.8398 343.692 62.5384 344.411 63.5395L345.629 62.664ZM342.493 60.032L343.114 58.6664C341.713 58.0296 340.289 57.692 338.853 57.692V59.192V60.692C339.807 60.692 340.81 60.9144 341.873 61.3975L342.493 60.032ZM338.853 59.192V57.692C337.418 57.692 335.994 58.0296 334.593 58.6664L335.213 60.032L335.834 61.3975C336.897 60.9144 337.899 60.692 338.853 60.692V59.192ZM335.213 60.032L334.593 58.6664C333.102 59.3442 331.857 60.4003 330.859 61.7885L332.077 62.664L333.295 63.5395C334.015 62.5384 334.861 61.8398 335.834 61.3975L335.213 60.032ZM332.077 62.664L330.859 61.7885C329.789 63.2777 329.247 65.1455 329.124 67.2816L330.621 67.368L332.119 67.4544C332.22 65.7078 332.648 64.4396 333.295 63.5395L332.077 62.664Z" fill="#093C85"/>
<path d="M137 93L357 93" stroke="#E87C35" stroke-width="4" stroke-linecap="round"/>
</svg>
